<svg width="400" height="316" viewBox="0 0 400 316" fill="none" xmlns="http://www.w3.org/2000/svg">
<g clip-path="url(#clip0_5_323)">
<path d="M232.999 55.7071C240.496 55.7071 246.573 49.1059 246.573 40.963C246.573 32.82 240.496 26.2189 232.999 26.2189C225.503 26.2189 219.425 32.82 219.425 40.963C219.425 49.1059 225.503 55.7071 232.999 55.7071Z" fill="#F2F2F2"/>
<path d="M338.297 274.527C358.473 257.834 368.11 229.784 362.077 203.027C361.927 202.362 361.769 201.698 361.602 201.037C357.603 185.154 347.708 170.058 333.286 164.983C321.177 160.722 307.959 163.998 295.326 162.304C270.527 158.977 251.3 137.182 237.772 114.362C224.244 91.5425 213.847 65.999 195.871 47.1465C166.24 16.0713 117.906 9.38079 81.1679 29.6084C44.4304 49.8361 21.0289 94.7128 22.0269 139.438C23.0249 184.163 47.4692 226.924 82.9683 249.611C96.0093 257.945 111.092 263.85 126.103 261.784C139.128 259.991 150.962 252.389 163.926 250.133C184.307 246.584 204.558 256.594 222.187 268.258C239.815 279.922 256.843 293.747 276.875 299.155C296.326 304.405 320.424 289.313 338.297 274.527Z" fill="#F2F2F2"/>
<path d="M309.309 30.5476C308.867 30.2273 308.419 29.9236 307.977 29.6144C295.192 20.7327 281.488 13.5173 267.149 8.11729L263.824 57.9367H242.747V0.844833C241.42 0.546646 240.083 0.265025 238.746 -3.05176e-05V57.9367H213.699C199.91 57.9367 186.685 51.9868 176.935 41.396C167.185 30.8052 161.707 16.441 161.707 1.46336C160.365 1.77811 159.033 2.11491 157.701 2.47383V57.9367H137.3L134.133 10.431C119.397 16.5694 105.408 24.6417 92.4765 34.4682C92.2528 34.6339 92.0291 34.8051 91.8105 34.9707C90.687 35.8266 89.5788 36.6991 88.4756 37.5826V227.644H148.601L147.539 211.658L141.692 123.886H259.427L253.581 211.658L252.518 227.644H311.978V32.4693C311.093 31.8177 310.204 31.1771 309.309 30.5476ZM157.701 109.391H140.726L137.59 62.288H157.701V109.391ZM238.746 109.391H210.237V108.457C210.237 108.009 210.155 107.564 209.997 107.15C209.839 106.736 209.607 106.359 209.315 106.042C209.022 105.725 208.675 105.474 208.294 105.303C207.912 105.132 207.503 105.044 207.09 105.045H194.696C194.283 105.045 193.874 105.133 193.493 105.304C193.112 105.476 192.765 105.727 192.474 106.044C192.182 106.361 191.95 106.737 191.793 107.151C191.635 107.565 191.554 108.009 191.554 108.457V109.391H161.707V62.288H238.746V109.391ZM242.747 109.391V62.288H263.535L260.398 109.391H242.747Z" fill="#3F3D56"/>
<path d="M-1.90735e-05 239.815C4.41637 245.499 9.19319 250.841 14.2955 255.801L385.704 256.353C390.807 251.393 395.584 246.051 400 240.367L-1.90735e-05 239.815Z" fill="#3F3D56"/>
<path d="M251.864 188.626V235.952C251.865 236.555 252.086 237.133 252.478 237.56C252.871 237.986 253.403 238.226 253.958 238.226H318.524C319.08 238.226 319.612 237.986 320.005 237.56C320.397 237.133 320.618 236.555 320.618 235.952V188.626C320.617 188.024 320.396 187.446 320.004 187.02C319.611 186.595 319.079 186.355 318.524 186.354H253.958C253.404 186.355 252.872 186.595 252.479 187.02C252.087 187.446 251.866 188.024 251.864 188.626Z" fill="#3F3D56"/>
<path d="M253.379 189.215V235.368C253.38 235.69 253.498 235.999 253.707 236.227C253.917 236.455 254.202 236.583 254.498 236.584H317.987C318.284 236.583 318.568 236.455 318.778 236.227C318.988 235.999 319.106 235.69 319.106 235.368V189.215C319.106 188.893 318.988 188.583 318.778 188.355C318.569 188.126 318.284 187.998 317.987 187.997H254.498C254.201 187.998 253.917 188.126 253.707 188.355C253.497 188.583 253.379 188.893 253.379 189.215Z" fill="#EBFF00"/>
<path d="M250.514 245.182C250.632 245.343 250.783 245.473 250.954 245.562C251.125 245.651 251.312 245.696 251.502 245.695H320.637C320.826 245.695 321.013 245.649 321.183 245.56C321.354 245.472 321.504 245.343 321.624 245.184C321.743 245.024 321.828 244.838 321.872 244.638C321.916 244.439 321.919 244.231 321.881 244.03L320.807 238.493C320.763 238.267 320.667 238.057 320.529 237.882C320.391 237.706 320.214 237.571 320.015 237.489C319.872 237.428 319.718 237.396 319.564 237.397H252.571C252.417 237.396 252.263 237.428 252.12 237.489C251.921 237.571 251.744 237.706 251.606 237.882C251.468 238.057 251.372 238.267 251.328 238.493L250.254 244.03C250.216 244.231 250.22 244.438 250.265 244.638C250.31 244.837 250.395 245.023 250.514 245.182Z" fill="#2F2E41"/>
<path d="M317.192 239.781H318.825C318.962 239.781 319.073 239.661 319.073 239.512V238.663C319.073 238.514 318.962 238.394 318.825 238.394H317.192C317.055 238.394 316.944 238.514 316.944 238.663V239.512C316.944 239.661 317.055 239.781 317.192 239.781Z" fill="#3F3D56"/>
<path d="M312.933 239.781H314.566C314.703 239.781 314.814 239.661 314.814 239.512V238.663C314.814 238.514 314.703 238.394 314.566 238.394H312.933C312.796 238.394 312.685 238.514 312.685 238.663V239.512C312.685 239.661 312.796 239.781 312.933 239.781Z" fill="#3F3D56"/>
<path d="M308.674 239.781H310.307C310.444 239.781 310.556 239.661 310.556 239.512V238.663C310.556 238.514 310.444 238.394 310.307 238.394H308.674C308.537 238.394 308.426 238.514 308.426 238.663V239.512C308.426 239.661 308.537 239.781 308.674 239.781Z" fill="#3F3D56"/>
<path d="M304.416 239.781H306.049C306.186 239.781 306.297 239.661 306.297 239.512V238.663C306.297 238.514 306.186 238.394 306.049 238.394H304.416C304.279 238.394 304.168 238.514 304.168 238.663V239.512C304.168 239.661 304.279 239.781 304.416 239.781Z" fill="#3F3D56"/>
<path d="M300.157 239.781H301.79C301.927 239.781 302.038 239.661 302.038 239.512V238.663C302.038 238.514 301.927 238.394 301.79 238.394H300.157C300.02 238.394 299.909 238.514 299.909 238.663V239.512C299.909 239.661 300.02 239.781 300.157 239.781Z" fill="#3F3D56"/>
<path d="M295.898 239.781H297.531C297.668 239.781 297.78 239.661 297.78 239.512V238.663C297.78 238.514 297.668 238.394 297.531 238.394H295.898C295.761 238.394 295.65 238.514 295.65 238.663V239.512C295.65 239.661 295.761 239.781 295.898 239.781Z" fill="#3F3D56"/>
<path d="M291.64 239.781H293.273C293.41 239.781 293.521 239.661 293.521 239.512V238.663C293.521 238.514 293.41 238.394 293.273 238.394H291.64C291.503 238.394 291.392 238.514 291.392 238.663V239.512C291.392 239.661 291.503 239.781 291.64 239.781Z" fill="#3F3D56"/>
<path d="M287.381 239.781H289.014C289.151 239.781 289.262 239.661 289.262 239.512V238.663C289.262 238.514 289.151 238.394 289.014 238.394H287.381C287.244 238.394 287.133 238.514 287.133 238.663V239.512C287.133 239.661 287.244 239.781 287.381 239.781Z" fill="#3F3D56"/>
<path d="M283.123 239.781H284.755C284.893 239.781 285.004 239.661 285.004 239.512V238.663C285.004 238.514 284.893 238.394 284.755 238.394H283.123C282.985 238.394 282.874 238.514 282.874 238.663V239.512C282.874 239.661 282.985 239.781 283.123 239.781Z" fill="#3F3D56"/>
<path d="M278.864 239.781H280.497C280.634 239.781 280.745 239.661 280.745 239.512V238.663C280.745 238.514 280.634 238.394 280.497 238.394H278.864C278.727 238.394 278.616 238.514 278.616 238.663V239.512C278.616 239.661 278.727 239.781 278.864 239.781Z" fill="#3F3D56"/>
<path d="M274.605 239.781H276.238C276.375 239.781 276.486 239.661 276.486 239.512V238.663C276.486 238.514 276.375 238.394 276.238 238.394H274.605C274.468 238.394 274.357 238.514 274.357 238.663V239.512C274.357 239.661 274.468 239.781 274.605 239.781Z" fill="#3F3D56"/>
<path d="M270.347 239.781H271.98C272.117 239.781 272.228 239.661 272.228 239.512V238.663C272.228 238.514 272.117 238.394 271.98 238.394H270.347C270.21 238.394 270.098 238.514 270.098 238.663V239.512C270.098 239.661 270.21 239.781 270.347 239.781Z" fill="#3F3D56"/>
<path d="M266.088 239.781H267.721C267.858 239.781 267.969 239.661 267.969 239.512V238.663C267.969 238.514 267.858 238.394 267.721 238.394H266.088C265.951 238.394 265.84 238.514 265.84 238.663V239.512C265.84 239.661 265.951 239.781 266.088 239.781Z" fill="#3F3D56"/>
<path d="M261.829 239.781H263.462C263.599 239.781 263.71 239.661 263.71 239.512V238.663C263.71 238.514 263.599 238.394 263.462 238.394H261.829C261.692 238.394 261.581 238.514 261.581 238.663V239.512C261.581 239.661 261.692 239.781 261.829 239.781Z" fill="#3F3D56"/>
<path d="M257.571 239.781H259.204C259.341 239.781 259.452 239.661 259.452 239.512V238.663C259.452 238.514 259.341 238.394 259.204 238.394H257.571C257.434 238.394 257.322 238.514 257.322 238.663V239.512C257.322 239.661 257.434 239.781 257.571 239.781Z" fill="#3F3D56"/>
<path d="M253.312 239.781H254.945C255.082 239.781 255.193 239.661 255.193 239.512V238.663C255.193 238.514 255.082 238.394 254.945 238.394H253.312C253.175 238.394 253.064 238.514 253.064 238.663V239.512C253.064 239.661 253.175 239.781 253.312 239.781Z" fill="#3F3D56"/>
<path d="M317.242 242.094H318.875C319.012 242.094 319.123 241.974 319.123 241.825V240.976C319.123 240.827 319.012 240.707 318.875 240.707H317.242C317.105 240.707 316.994 240.827 316.994 240.976V241.825C316.994 241.974 317.105 242.094 317.242 242.094Z" fill="#3F3D56"/>
<path d="M312.983 242.094H314.616C314.753 242.094 314.865 241.974 314.865 241.825V240.976C314.865 240.827 314.753 240.707 314.616 240.707H312.983C312.846 240.707 312.735 240.827 312.735 240.976V241.825C312.735 241.974 312.846 242.094 312.983 242.094Z" fill="#3F3D56"/>
<path d="M308.725 242.094H310.358C310.495 242.094 310.606 241.974 310.606 241.825V240.976C310.606 240.827 310.495 240.707 310.358 240.707H308.725C308.588 240.707 308.477 240.827 308.477 240.976V241.825C308.477 241.974 308.588 242.094 308.725 242.094Z" fill="#3F3D56"/>
<path d="M304.466 242.094H306.099C306.236 242.094 306.347 241.974 306.347 241.825V240.976C306.347 240.827 306.236 240.707 306.099 240.707H304.466C304.329 240.707 304.218 240.827 304.218 240.976V241.825C304.218 241.974 304.329 242.094 304.466 242.094Z" fill="#3F3D56"/>
<path d="M300.207 242.094H301.84C301.977 242.094 302.089 241.974 302.089 241.825V240.976C302.089 240.827 301.977 240.707 301.84 240.707H300.207C300.07 240.707 299.959 240.827 299.959 240.976V241.825C299.959 241.974 300.07 242.094 300.207 242.094Z" fill="#3F3D56"/>
<path d="M295.949 242.094H297.582C297.719 242.094 297.83 241.974 297.83 241.825V240.976C297.83 240.827 297.719 240.707 297.582 240.707H295.949C295.812 240.707 295.701 240.827 295.701 240.976V241.825C295.701 241.974 295.812 242.094 295.949 242.094Z" fill="#3F3D56"/>
<path d="M291.69 242.094H293.323C293.46 242.094 293.571 241.974 293.571 241.825V240.976C293.571 240.827 293.46 240.707 293.323 240.707H291.69C291.553 240.707 291.442 240.827 291.442 240.976V241.825C291.442 241.974 291.553 242.094 291.69 242.094Z" fill="#3F3D56"/>
<path d="M287.431 242.094H289.064C289.201 242.094 289.313 241.974 289.313 241.825V240.976C289.313 240.827 289.201 240.707 289.064 240.707H287.431C287.294 240.707 287.183 240.827 287.183 240.976V241.825C287.183 241.974 287.294 242.094 287.431 242.094Z" fill="#3F3D56"/>
<path d="M283.173 242.094H284.806C284.943 242.094 285.054 241.974 285.054 241.825V240.976C285.054 240.827 284.943 240.707 284.806 240.707H283.173C283.036 240.707 282.925 240.827 282.925 240.976V241.825C282.925 241.974 283.036 242.094 283.173 242.094Z" fill="#3F3D56"/>
<path d="M278.914 242.094H280.547C280.684 242.094 280.795 241.974 280.795 241.825V240.976C280.795 240.827 280.684 240.707 280.547 240.707H278.914C278.777 240.707 278.666 240.827 278.666 240.976V241.825C278.666 241.974 278.777 242.094 278.914 242.094Z" fill="#3F3D56"/>
<path d="M274.656 242.094H276.288C276.426 242.094 276.537 241.974 276.537 241.825V240.976C276.537 240.827 276.426 240.707 276.288 240.707H274.656C274.518 240.707 274.407 240.827 274.407 240.976V241.825C274.407 241.974 274.518 242.094 274.656 242.094Z" fill="#3F3D56"/>
<path d="M270.397 242.094H272.03C272.167 242.094 272.278 241.974 272.278 241.825V240.976C272.278 240.827 272.167 240.707 272.03 240.707H270.397C270.26 240.707 270.149 240.827 270.149 240.976V241.825C270.149 241.974 270.26 242.094 270.397 242.094Z" fill="#3F3D56"/>
<path d="M266.138 242.094H267.771C267.908 242.094 268.019 241.974 268.019 241.825V240.976C268.019 240.827 267.908 240.707 267.771 240.707H266.138C266.001 240.707 265.89 240.827 265.89 240.976V241.825C265.89 241.974 266.001 242.094 266.138 242.094Z" fill="#3F3D56"/>
<path d="M261.88 242.094H263.513C263.65 242.094 263.761 241.974 263.761 241.825V240.976C263.761 240.827 263.65 240.707 263.513 240.707H261.88C261.742 240.707 261.631 240.827 261.631 240.976V241.825C261.631 241.974 261.742 242.094 261.88 242.094Z" fill="#3F3D56"/>
<path d="M257.621 242.094H259.254C259.391 242.094 259.502 241.974 259.502 241.825V240.976C259.502 240.827 259.391 240.707 259.254 240.707H257.621C257.484 240.707 257.373 240.827 257.373 240.976V241.825C257.373 241.974 257.484 242.094 257.621 242.094Z" fill="#3F3D56"/>
<path d="M253.362 242.094H254.995C255.132 242.094 255.243 241.974 255.243 241.825V240.976C255.243 240.827 255.132 240.707 254.995 240.707H253.362C253.225 240.707 253.114 240.827 253.114 240.976V241.825C253.114 241.974 253.225 242.094 253.362 242.094Z" fill="#3F3D56"/>
<path d="M281.895 244.87H298.434C298.571 244.87 298.682 244.749 298.682 244.6V243.752C298.682 243.603 298.571 243.482 298.434 243.482H281.895C281.758 243.482 281.647 243.603 281.647 243.752V244.6C281.647 244.749 281.758 244.87 281.895 244.87Z" fill="#3F3D56"/>
<path d="M264.373 198.094H262.928C262.49 198.094 262.134 198.48 262.134 198.956C262.134 199.432 262.49 199.818 262.928 199.818H264.373C264.812 199.818 265.167 199.432 265.167 198.956C265.167 198.48 264.812 198.094 264.373 198.094Z" fill="white"/>
<path d="M280.907 198.094H279.462C279.023 198.094 278.668 198.48 278.668 198.956C278.668 199.432 279.023 199.818 279.462 199.818H280.907C281.346 199.818 281.701 199.432 281.701 198.956C281.701 198.48 281.346 198.094 280.907 198.094Z" fill="white"/>
<path d="M285.592 198.094H284.146C283.708 198.094 283.353 198.48 283.353 198.956C283.353 199.432 283.708 199.818 284.146 199.818H285.592C286.03 199.818 286.386 199.432 286.386 198.956C286.386 198.48 286.03 198.094 285.592 198.094Z" fill="white"/>
<path d="M276.41 197.95H267.425C266.987 197.95 266.632 198.336 266.632 198.812C266.632 199.289 266.987 199.674 267.425 199.674H276.41C276.848 199.674 277.204 199.289 277.204 198.812C277.204 198.336 276.848 197.95 276.41 197.95Z" fill="white"/>
<path d="M298.455 197.95H289.47C289.032 197.95 288.677 198.336 288.677 198.812C288.677 199.289 289.032 199.674 289.47 199.674H298.455C298.894 199.674 299.249 199.289 299.249 198.812C299.249 198.336 298.894 197.95 298.455 197.95Z" fill="white"/>
<path d="M268.783 201.985H267.337C266.899 201.985 266.543 202.371 266.543 202.847C266.543 203.323 266.899 203.709 267.337 203.709H268.783C269.221 203.709 269.576 203.323 269.576 202.847C269.576 202.371 269.221 201.985 268.783 201.985Z" fill="white"/>
<path d="M285.316 201.985H283.871C283.432 201.985 283.077 202.371 283.077 202.847C283.077 203.323 283.432 203.709 283.871 203.709H285.316C285.755 203.709 286.11 203.323 286.11 202.847C286.11 202.371 285.755 201.985 285.316 201.985Z" fill="white"/>
<path d="M290.001 201.985H288.555C288.117 201.985 287.762 202.371 287.762 202.847C287.762 203.323 288.117 203.709 288.555 203.709H290.001C290.439 203.709 290.795 203.323 290.795 202.847C290.795 202.371 290.439 201.985 290.001 201.985Z" fill="white"/>
<path d="M280.819 201.842H271.834C271.396 201.842 271.041 202.228 271.041 202.704C271.041 203.18 271.396 203.566 271.834 203.566H280.819C281.257 203.566 281.613 203.18 281.613 202.704C281.613 202.228 281.257 201.842 280.819 201.842Z" fill="white"/>
<path d="M302.864 201.842H293.879C293.441 201.842 293.086 202.228 293.086 202.704C293.086 203.18 293.441 203.566 293.879 203.566H302.864C303.303 203.566 303.658 203.18 303.658 202.704C303.658 202.228 303.303 201.842 302.864 201.842Z" fill="white"/>
<path d="M273.192 205.876H271.746C271.308 205.876 270.952 206.262 270.952 206.738C270.952 207.215 271.308 207.601 271.746 207.601H273.192C273.63 207.601 273.985 207.215 273.985 206.738C273.985 206.262 273.63 205.876 273.192 205.876Z" fill="white"/>
<path d="M289.725 205.876H288.28C287.841 205.876 287.486 206.262 287.486 206.738C287.486 207.215 287.841 207.601 288.28 207.601H289.725C290.164 207.601 290.519 207.215 290.519 206.738C290.519 206.262 290.164 205.876 289.725 205.876Z" fill="white"/>
<path d="M294.41 205.876H292.964C292.526 205.876 292.171 206.262 292.171 206.738C292.171 207.215 292.526 207.601 292.964 207.601H294.41C294.848 207.601 295.204 207.215 295.204 206.738C295.204 206.262 294.848 205.876 294.41 205.876Z" fill="white"/>
<path d="M285.228 205.733H276.243C275.805 205.733 275.45 206.119 275.45 206.595C275.45 207.071 275.805 207.457 276.243 207.457H285.228C285.667 207.457 286.022 207.071 286.022 206.595C286.022 206.119 285.667 205.733 285.228 205.733Z" fill="white"/>
<path d="M307.273 205.733H298.288C297.85 205.733 297.495 206.119 297.495 206.595C297.495 207.071 297.85 207.457 298.288 207.457H307.273C307.712 207.457 308.067 207.071 308.067 206.595C308.067 206.119 307.712 205.733 307.273 205.733Z" fill="white"/>
<path d="M277.601 209.768H276.155C275.717 209.768 275.361 210.154 275.361 210.63C275.361 211.106 275.717 211.492 276.155 211.492H277.601C278.039 211.492 278.394 211.106 278.394 210.63C278.394 210.154 278.039 209.768 277.601 209.768Z" fill="white"/>
<path d="M294.135 209.768H292.689C292.251 209.768 291.895 210.154 291.895 210.63C291.895 211.106 292.251 211.492 292.689 211.492H294.135C294.573 211.492 294.928 211.106 294.928 210.63C294.928 210.154 294.573 209.768 294.135 209.768Z" fill="white"/>
<path d="M298.819 209.768H297.373C296.935 209.768 296.58 210.154 296.58 210.63C296.58 211.106 296.935 211.492 297.373 211.492H298.819C299.257 211.492 299.613 211.106 299.613 210.63C299.613 210.154 299.257 209.768 298.819 209.768Z" fill="white"/>
<path d="M289.637 209.624H280.652C280.214 209.624 279.859 210.01 279.859 210.486C279.859 210.962 280.214 211.348 280.652 211.348H289.637C290.076 211.348 290.431 210.962 290.431 210.486C290.431 210.01 290.076 209.624 289.637 209.624Z" fill="white"/>
<path d="M280.907 225.24H279.462C279.023 225.24 278.668 225.626 278.668 226.102C278.668 226.579 279.023 226.965 279.462 226.965H280.907C281.346 226.965 281.701 226.579 281.701 226.102C281.701 225.626 281.346 225.24 280.907 225.24Z" fill="white"/>
<path d="M285.592 225.24H284.146C283.708 225.24 283.353 225.626 283.353 226.102C283.353 226.579 283.708 226.965 284.146 226.965H285.592C286.03 226.965 286.386 226.579 286.386 226.102C286.386 225.626 286.03 225.24 285.592 225.24Z" fill="white"/>
<path d="M298.455 225.384H289.47C289.032 225.384 288.677 225.77 288.677 226.246C288.677 226.722 289.032 227.108 289.47 227.108H298.455C298.894 227.108 299.249 226.722 299.249 226.246C299.249 225.77 298.894 225.384 298.455 225.384Z" fill="white"/>
<path d="M264.373 225.24H262.928C262.49 225.24 262.134 225.626 262.134 226.102C262.134 226.579 262.49 226.965 262.928 226.965H264.373C264.812 226.965 265.167 226.579 265.167 226.102C265.167 225.626 264.812 225.24 264.373 225.24Z" fill="white"/>
<path d="M276.41 225.384H267.425C266.987 225.384 266.632 225.77 266.632 226.246C266.632 226.722 266.987 227.108 267.425 227.108H276.41C276.848 227.108 277.204 226.722 277.204 226.246C277.204 225.77 276.848 225.384 276.41 225.384Z" fill="white"/>
<path d="M268.783 221.349H267.337C266.899 221.349 266.543 221.735 266.543 222.211C266.543 222.687 266.899 223.073 267.337 223.073H268.783C269.221 223.073 269.576 222.687 269.576 222.211C269.576 221.735 269.221 221.349 268.783 221.349Z" fill="white"/>
<path d="M285.316 221.349H283.871C283.432 221.349 283.077 221.735 283.077 222.211C283.077 222.687 283.432 223.073 283.871 223.073H285.316C285.755 223.073 286.11 222.687 286.11 222.211C286.11 221.735 285.755 221.349 285.316 221.349Z" fill="white"/>
<path d="M290.001 221.349H288.555C288.117 221.349 287.762 221.735 287.762 222.211C287.762 222.687 288.117 223.073 288.555 223.073H290.001C290.439 223.073 290.795 222.687 290.795 222.211C290.795 221.735 290.439 221.349 290.001 221.349Z" fill="white"/>
<path d="M280.819 221.493H271.834C271.396 221.493 271.041 221.879 271.041 222.355C271.041 222.831 271.396 223.217 271.834 223.217H280.819C281.257 223.217 281.613 222.831 281.613 222.355C281.613 221.879 281.257 221.493 280.819 221.493Z" fill="white"/>
<path d="M273.192 217.458H271.746C271.308 217.458 270.952 217.844 270.952 218.32C270.952 218.796 271.308 219.182 271.746 219.182H273.192C273.63 219.182 273.985 218.796 273.985 218.32C273.985 217.844 273.63 217.458 273.192 217.458Z" fill="white"/>
<path d="M289.725 217.458H288.28C287.841 217.458 287.486 217.844 287.486 218.32C287.486 218.796 287.841 219.182 288.28 219.182H289.725C290.164 219.182 290.519 218.796 290.519 218.32C290.519 217.844 290.164 217.458 289.725 217.458Z" fill="white"/>
<path d="M294.41 217.458H292.964C292.526 217.458 292.171 217.844 292.171 218.32C292.171 218.796 292.526 219.182 292.964 219.182H294.41C294.848 219.182 295.204 218.796 295.204 218.32C295.204 217.844 294.848 217.458 294.41 217.458Z" fill="white"/>
<path d="M285.228 217.602H276.243C275.805 217.602 275.45 217.988 275.45 218.464C275.45 218.94 275.805 219.326 276.243 219.326H285.228C285.667 219.326 286.022 218.94 286.022 218.464C286.022 217.988 285.667 217.602 285.228 217.602Z" fill="white"/>
<path d="M277.601 213.567H276.155C275.717 213.567 275.361 213.953 275.361 214.429C275.361 214.905 275.717 215.291 276.155 215.291H277.601C278.039 215.291 278.394 214.905 278.394 214.429C278.394 213.953 278.039 213.567 277.601 213.567Z" fill="white"/>
<path d="M294.135 213.567H292.689C292.251 213.567 291.895 213.953 291.895 214.429C291.895 214.905 292.251 215.291 292.689 215.291H294.135C294.573 215.291 294.928 214.905 294.928 214.429C294.928 213.953 294.573 213.567 294.135 213.567Z" fill="white"/>
<path d="M298.819 213.567H297.373C296.935 213.567 296.58 213.953 296.58 214.429C296.58 214.905 296.935 215.291 297.373 215.291H298.819C299.257 215.291 299.613 214.905 299.613 214.429C299.613 213.953 299.257 213.567 298.819 213.567Z" fill="white"/>
<path d="M289.637 213.711H280.652C280.214 213.711 279.859 214.097 279.859 214.573C279.859 215.049 280.214 215.435 280.652 215.435H289.637C290.076 215.435 290.431 215.049 290.431 214.573C290.431 214.097 290.076 213.711 289.637 213.711Z" fill="white"/>
<path d="M256.688 270.843L249.901 259.191L271.203 240.746L279.995 230.165C281.138 228.791 282.592 227.766 284.213 227.193C285.835 226.62 287.566 226.52 289.234 226.901C290.902 227.283 292.449 228.133 293.72 229.368C294.991 230.602 295.941 232.177 296.476 233.936C297.269 236.541 297.098 239.379 296.001 241.851C294.903 244.323 292.965 246.235 290.594 247.183L276.691 252.747L256.688 270.843Z" fill="#FFB6B6"/>
<path d="M97.4505 186.356V242.99H133.977V186.356C133.978 185.949 133.858 185.552 133.636 185.224C133.414 184.896 133.1 184.654 132.742 184.534C132.573 184.474 132.396 184.444 132.218 184.446H99.2145C98.9832 184.445 98.754 184.494 98.5401 184.59C98.3262 184.686 98.1318 184.827 97.968 185.004C97.8041 185.181 97.6741 185.392 97.5853 185.624C97.4965 185.856 97.4507 186.105 97.4505 186.356ZM111.705 205.816C111.715 204.699 112.13 203.632 112.86 202.846C113.59 202.061 114.577 201.62 115.605 201.62C116.632 201.62 117.619 202.061 118.349 202.846C119.079 203.632 119.494 204.699 119.504 205.816V212.387C119.499 213.507 119.085 214.578 118.355 215.368C117.624 216.158 116.635 216.601 115.605 216.601C114.574 216.601 113.585 216.158 112.854 215.368C112.124 214.578 111.711 213.507 111.705 212.387V205.816Z" fill="#2F2E41"/>
<path d="M97.3387 241.179V246.64C97.3395 246.923 97.443 247.194 97.6267 247.395C97.8103 247.595 98.0594 247.709 98.3198 247.711H133.108C133.369 247.71 133.618 247.596 133.802 247.396C133.986 247.195 134.089 246.923 134.089 246.64V241.179H97.3387Z" fill="#3F3D56"/>
<path d="M39.9888 101.031V204.435C39.9898 205.753 40.4721 207.017 41.33 207.948C42.1878 208.88 43.351 209.404 44.5642 209.405H185.638C186.852 209.404 188.015 208.88 188.873 207.948C189.73 207.017 190.213 205.753 190.214 204.435V101.031C190.211 99.7142 189.728 98.4525 188.87 97.522C188.013 96.5915 186.851 96.0682 185.638 96.0665H44.5642C43.3521 96.0682 42.19 96.5916 41.3324 97.522C40.4748 98.4525 39.9917 99.7142 39.9888 101.031Z" fill="#3F3D56"/>
<path d="M43.2983 102.317V203.16C43.2995 203.864 43.5574 204.539 44.0158 205.037C44.4741 205.535 45.0954 205.815 45.7436 205.816H184.464C185.112 205.815 185.734 205.535 186.192 205.037C186.65 204.539 186.908 203.864 186.909 203.16V102.317C186.909 101.612 186.652 100.936 186.193 100.437C185.735 99.9384 185.113 99.6573 184.464 99.6557H45.7436C45.0946 99.6573 44.4727 99.9384 44.0143 100.437C43.5559 100.936 43.2984 101.612 43.2983 102.317Z" fill="white"/>
<path d="M69.0425 247.341C69.1837 247.534 69.3632 247.689 69.5674 247.795C69.7717 247.901 69.9955 247.955 70.2219 247.954H152.752C152.977 247.954 153.2 247.899 153.404 247.793C153.608 247.688 153.787 247.534 153.929 247.344C154.071 247.153 154.173 246.931 154.226 246.693C154.279 246.454 154.282 246.206 154.236 245.966L152.955 239.356C152.902 239.087 152.788 238.836 152.622 238.627C152.457 238.418 152.246 238.256 152.009 238.158C151.838 238.085 151.655 238.048 151.471 238.048H71.4979C71.3135 238.048 71.1307 238.085 70.9591 238.158C70.7219 238.256 70.5112 238.418 70.346 238.627C70.1809 238.836 70.0666 239.087 70.0135 239.356L68.7324 245.966C68.6868 246.206 68.691 246.454 68.7446 246.692C68.7983 246.93 68.9 247.152 69.0425 247.341Z" fill="#2F2E41"/>
<path d="M179.962 113.547H50.162C50.0271 113.544 49.8987 113.484 49.8043 113.379C49.71 113.274 49.6571 113.133 49.6571 112.987C49.6571 112.84 49.71 112.699 49.8043 112.594C49.8987 112.49 50.0271 112.429 50.162 112.426H179.962C180.097 112.429 180.225 112.49 180.32 112.594C180.414 112.699 180.467 112.84 180.467 112.987C180.467 113.133 180.414 113.274 180.32 113.379C180.225 113.484 180.097 113.544 179.962 113.547Z" fill="#3F3D56"/>
<path d="M58.9976 109.563C60.6683 109.563 62.0227 108.059 62.0227 106.204C62.0227 104.349 60.6683 102.845 58.9976 102.845C57.327 102.845 55.9726 104.349 55.9726 106.204C55.9726 108.059 57.327 109.563 58.9976 109.563Z" fill="#3F3D56"/>
<path d="M69.4478 109.563C71.1185 109.563 72.4729 108.059 72.4729 106.204C72.4729 104.349 71.1185 102.845 69.4478 102.845C67.7771 102.845 66.4228 104.349 66.4228 106.204C66.4228 108.059 67.7771 109.563 69.4478 109.563Z" fill="#3F3D56"/>
<path d="M79.898 109.563C81.5687 109.563 82.9231 108.059 82.9231 106.204C82.9231 104.349 81.5687 102.845 79.898 102.845C78.2273 102.845 76.873 104.349 76.873 106.204C76.873 108.059 78.2273 109.563 79.898 109.563Z" fill="#3F3D56"/>
<path d="M173.669 103.676H166.247C166.1 103.68 165.961 103.745 165.858 103.859C165.756 103.973 165.698 104.127 165.698 104.286C165.698 104.445 165.756 104.598 165.858 104.713C165.961 104.827 166.1 104.892 166.247 104.896H173.669C173.817 104.894 173.958 104.829 174.062 104.714C174.165 104.6 174.223 104.446 174.223 104.286C174.223 104.126 174.165 103.972 174.062 103.858C173.958 103.743 173.817 103.678 173.669 103.676Z" fill="#3F3D56"/>
<path d="M173.669 105.967H166.247C166.1 105.971 165.961 106.037 165.858 106.151C165.755 106.265 165.698 106.418 165.698 106.578C165.698 106.737 165.755 106.89 165.858 107.004C165.961 107.118 166.1 107.184 166.247 107.188H173.669C173.817 107.186 173.958 107.121 174.062 107.007C174.166 106.892 174.224 106.738 174.224 106.578C174.224 106.417 174.166 106.263 174.062 106.149C173.958 106.035 173.817 105.969 173.669 105.967Z" fill="#3F3D56"/>
<path d="M173.669 108.259H166.247C166.1 108.263 165.961 108.329 165.858 108.443C165.756 108.557 165.698 108.71 165.698 108.869C165.698 109.029 165.756 109.182 165.858 109.296C165.961 109.41 166.1 109.476 166.247 109.479H173.669C173.817 109.477 173.958 109.412 174.062 109.298C174.165 109.183 174.223 109.03 174.223 108.869C174.223 108.709 174.165 108.555 174.062 108.441C173.958 108.327 173.817 108.261 173.669 108.259Z" fill="#3F3D56"/>
<path d="M352.607 243.576C352.831 244.284 353.256 244.897 353.821 245.327C354.385 245.756 355.061 245.981 355.75 245.967L369.218 245.591C369.913 245.576 370.584 245.318 371.132 244.854C371.68 244.391 372.075 243.747 372.259 243.019L374.165 220.883C374.841 221.216 375.577 221.38 376.319 221.364C376.964 221.346 377.599 221.191 378.189 220.907C378.778 220.622 379.31 220.215 379.755 219.707C380.199 219.199 380.547 218.602 380.779 217.948C381.011 217.294 381.122 216.597 381.106 215.897C381.09 215.196 380.947 214.506 380.685 213.866C380.423 213.226 380.048 212.647 379.581 212.165C379.113 211.682 378.563 211.304 377.961 211.052C377.359 210.8 376.717 210.68 376.073 210.697C375.776 210.696 375.48 210.73 375.19 210.797C374.874 210.426 374.491 210.131 374.064 209.931C373.637 209.731 373.177 209.631 372.712 209.636L351.996 210.217C351.824 210.224 351.653 210.247 351.485 210.286C351.03 210.378 350.599 210.574 350.221 210.862C349.842 211.15 349.525 211.523 349.29 211.956C349.056 212.388 348.909 212.87 348.86 213.369C348.811 213.868 348.861 214.373 349.007 214.849L352.607 243.576ZM374.555 219.38L375.912 214.105C376.066 213.496 376.069 212.853 375.922 212.242C375.988 212.241 376.046 212.207 376.112 212.207C377.042 212.186 377.941 212.567 378.613 213.265C379.285 213.964 379.675 214.923 379.696 215.933C379.718 216.943 379.37 217.921 378.729 218.653C378.088 219.385 377.206 219.811 376.276 219.837C375.675 219.858 375.08 219.699 374.555 219.38Z" fill="#2F2E41"/>
<path d="M351.484 210.286C351.926 213.027 356.888 214.954 362.855 214.619C368.341 214.344 372.828 212.252 373.65 209.771C373.345 209.674 373.029 209.628 372.712 209.636L351.995 210.217C351.824 210.224 351.653 210.247 351.484 210.286Z" fill="#3F3D56"/>
<path d="M363.948 231.412C363.976 231.404 364.001 231.392 364.025 231.375L366.95 229.296C366.985 229.27 367.014 229.236 367.034 229.196C367.054 229.156 367.065 229.111 367.065 229.065C367.065 229.019 367.054 228.974 367.034 228.933C367.014 228.893 366.985 228.859 366.95 228.834L363.91 226.671C363.882 226.651 363.851 226.637 363.818 226.63C363.785 226.623 363.751 226.623 363.718 226.631C363.686 226.638 363.655 226.652 363.627 226.673C363.599 226.693 363.576 226.719 363.557 226.75C363.539 226.78 363.526 226.814 363.52 226.85C363.514 226.886 363.514 226.922 363.521 226.958C363.528 226.993 363.541 227.027 363.56 227.057C363.579 227.087 363.603 227.113 363.631 227.133L366.347 229.064L363.747 230.913C363.696 230.949 363.659 231.003 363.642 231.065C363.625 231.128 363.629 231.195 363.653 231.255C363.677 231.315 363.72 231.363 363.774 231.392C363.828 231.421 363.89 231.428 363.948 231.412Z" fill="#EBFF00"/>
<path d="M359.329 231.643C359.378 231.629 359.422 231.6 359.456 231.559C359.49 231.518 359.511 231.467 359.518 231.413C359.525 231.358 359.517 231.303 359.495 231.254C359.472 231.204 359.437 231.163 359.393 231.136L356.697 229.457L359.303 227.355C359.329 227.333 359.352 227.306 359.369 227.275C359.386 227.244 359.398 227.209 359.402 227.173C359.407 227.138 359.406 227.101 359.398 227.066C359.389 227.031 359.375 226.998 359.355 226.969C359.335 226.939 359.31 226.915 359.282 226.896C359.253 226.878 359.221 226.865 359.188 226.86C359.155 226.855 359.122 226.857 359.089 226.866C359.057 226.874 359.026 226.89 359 226.912L356.082 229.266C356.048 229.293 356.021 229.329 356.003 229.37C355.986 229.412 355.978 229.458 355.98 229.503C355.982 229.549 355.995 229.593 356.018 229.632C356.04 229.671 356.071 229.704 356.107 229.726L359.14 231.615C359.197 231.65 359.265 231.661 359.329 231.643Z" fill="#EBFF00"/>
<path d="M363.657 233.234C363.682 233.227 363.705 233.216 363.727 233.202C363.756 233.183 363.78 233.158 363.8 233.129C363.82 233.1 363.834 233.067 363.842 233.031C363.85 232.996 363.851 232.96 363.846 232.924C363.841 232.888 363.83 232.853 363.812 232.822L359.666 225.418C359.631 225.356 359.574 225.311 359.509 225.294C359.443 225.277 359.374 225.289 359.317 225.327C359.259 225.365 359.218 225.426 359.202 225.497C359.186 225.568 359.197 225.643 359.232 225.706L363.378 233.11C363.406 233.16 363.448 233.2 363.499 233.222C363.549 233.244 363.605 233.248 363.657 233.234Z" fill="#EBFF00"/>
<path d="M130.571 144.028H108.105C107.189 144.028 106.446 144.835 106.446 145.831V148.215C106.446 149.21 107.189 150.017 108.105 150.017H130.571C131.487 150.017 132.23 149.21 132.23 148.215V145.831C132.23 144.835 131.487 144.028 130.571 144.028Z" fill="#EBFF00"/>
<path d="M143.666 156.006H95.0104C94.0939 156.006 93.351 156.813 93.351 157.809V160.193C93.351 161.188 94.0939 161.995 95.0104 161.995H143.666C144.582 161.995 145.325 161.188 145.325 160.193V157.809C145.325 156.813 144.582 156.006 143.666 156.006Z" fill="#E6E6E6"/>
<path d="M143.666 167.984H95.0104C94.0939 167.984 93.351 168.791 93.351 169.787V172.171C93.351 173.166 94.0939 173.973 95.0104 173.973H143.666C144.582 173.973 145.325 173.166 145.325 172.171V169.787C145.325 168.791 144.582 167.984 143.666 167.984Z" fill="#E6E6E6"/>
<path d="M147.79 208.094L147.901 208.472L147.906 208.484L151.224 219.439L155.04 232.063L162.219 255.786L162.289 259.471V259.484L162.822 289.128L161.344 293.147L163.008 299.736C163.008 299.736 162.243 289.776 158.137 295.496C155.811 298.746 153.091 302.072 150.858 305.19C154.112 306.62 157.417 307.914 160.775 309.071C161.5 309.323 162.231 309.562 162.962 309.802C163.118 309.852 163.275 309.902 163.431 309.953C174.562 313.528 186.069 315.537 197.671 315.931C198.274 315.95 198.866 315.962 199.44 315.975C199.643 315.981 199.84 315.987 200.037 315.987C200.687 315.994 201.33 316 201.98 316C203.291 316 204.595 315.979 205.894 315.937C215.509 315.643 225.068 314.238 234.41 311.748C234.346 307.559 234.172 302.664 233.923 297.436C233.807 294.872 231.203 292.094 231.046 289.411C230.936 287.395 233.273 285.499 233.152 283.452C232.363 270.847 231.377 275.685 230.646 266.759C230.571 265.884 230.501 265.046 230.437 264.246C229.968 258.513 229.643 254.929 229.643 254.929L232.763 233.568L237.663 200.031L237.286 199.357L236.863 199.13L211.015 185.234L209.612 181.328C209.203 180.203 208.493 179.236 207.575 178.553C206.656 177.869 205.57 177.5 204.456 177.492L187.429 177.416C186.546 177.412 185.674 177.637 184.886 178.071C184.098 178.506 183.417 179.139 182.9 179.917L178.289 186.853L147.79 208.094Z" fill="#3F3D56"/>
<path d="M166.146 250.507L162.289 259.471L159.656 265.594L155.127 291.352L152.859 293.966L150.916 284.711L130.582 289.615C129.916 285.59 130.404 289.752 129.992 285.336C130.108 285.21 130.23 285.084 130.352 284.958C130.676 284.63 130.949 284.322 130.943 284.026C130.711 268.794 131.407 242.872 137.218 227.168C138.128 224.604 139.328 222.173 140.791 219.93C140.907 219.76 141.017 219.59 141.127 219.42C143.806 215.344 145.5 211.332 147.901 208.478V208.472C147.916 208.459 147.929 208.444 147.941 208.428C147.95 208.423 147.958 208.417 147.964 208.409L164.458 198.909L165.165 220.503L165.67 236.025L166.146 250.507Z" fill="#3F3D56"/>
<path d="M225.618 253.053L230.435 264.249L232.116 268.148L236.644 293.903L238.905 296.511L240.852 287.259L241.767 287.055L258.268 283.343L263.078 299.934C264.162 297.973 264.589 295.664 264.286 293.4C263.984 291.136 262.972 289.054 261.42 287.507C261.091 287.184 260.817 286.87 260.825 286.573C261.099 268.658 260.09 235.945 250.979 222.481C248.086 218.208 246.35 213.953 243.824 210.979C243.816 210.971 243.816 210.963 243.808 210.963L237.661 200.03L237.286 199.359L236.863 199.13L225.618 253.053Z" fill="#3F3D56"/>
<path d="M196.435 172.153C208.945 172.153 219.087 161.137 219.087 147.548C219.087 133.959 208.945 122.943 196.435 122.943C183.924 122.943 173.782 133.959 173.782 147.548C173.782 161.137 183.924 172.153 196.435 172.153Z" fill="#FFB6B6"/>
<path d="M227.052 130.361C226.876 130.158 226.665 129.994 226.43 129.881C226.195 129.769 225.941 129.708 225.684 129.704L226.025 128.677C226.136 128.354 226.166 128.004 226.112 127.664C226.058 127.323 225.921 127.005 225.716 126.741C225.511 126.477 225.246 126.276 224.946 126.161C224.647 126.045 224.324 126.018 224.012 126.082L222.771 126.341L222.888 125.441C222.933 125.106 222.897 124.764 222.783 124.448C222.669 124.133 222.482 123.855 222.239 123.642C221.996 123.43 221.707 123.289 221.399 123.235C221.091 123.18 220.776 123.214 220.484 123.332C220.218 123.445 219.932 123.493 219.647 123.471C219.362 123.449 219.085 123.358 218.836 123.205C218.587 123.056 218.37 122.85 218.202 122.601C218.033 122.352 217.917 122.066 217.86 121.764L217.428 119.5L217.382 119.378C215.278 115.568 211.231 112.796 206.28 111.78C201.872 110.869 197.353 111.333 192.996 111.769C191.267 111.945 189.315 112.144 187.688 113.227C186.306 114.154 185.136 116.01 185.375 117.882C181.079 116.451 176.474 119.306 174.191 122.907C171.486 127.192 171.044 132.559 170.973 136.756C170.78 146.684 172.666 154.807 176.565 160.903C176.85 161.345 176.921 162.267 177.485 162.577L177.368 162.372C177.999 162.715 178.639 163.267 178.4 163.858C177.714 165.558 182.274 169.319 185.487 170.561C191.349 172.831 199.142 172.638 204.622 171.82L204.815 170.412C206.793 170.12 208.186 169.562 208.577 168.689C209.269 168.049 209.859 167.475 210.372 166.944L210.377 166.939C210.387 166.928 210.408 166.911 210.418 166.9C212.894 164.321 213.468 162.853 213.727 160.616C213.976 158.424 213.534 156.199 213.082 154.194C222.609 155.796 209.33 143.172 218.206 140.732C218.308 140.698 218.411 140.67 218.516 140.649C218.775 140.583 219.035 140.516 219.284 140.439C220.485 140.085 221.634 139.552 222.7 138.854C225.181 137.214 225.999 135.038 227.281 132.587C227.465 132.238 227.543 131.834 227.502 131.433C227.461 131.033 227.303 130.658 227.052 130.361Z" fill="#2F2E41"/>
<path d="M276.552 254.805C276.547 255.771 276.537 257.124 276.496 258.797C276.491 259.029 276.486 259.267 276.481 259.51C276.415 262.585 276.349 265.164 276.242 268.03C276.237 268.229 276.232 268.422 276.222 268.621C276.08 272.619 275.856 277.274 275.47 284.646C274.753 298.263 273.502 286.518 272.246 291.294C272.185 291.532 272.119 291.813 272.058 292.144C271.868 293.347 271.547 294.52 271.103 295.64C270.437 296.071 269.75 296.485 269.074 296.899C267.147 298.064 265.19 299.185 263.218 300.251C262.109 300.847 260.996 301.432 259.878 301.996C259.7 302.084 259.527 302.172 259.354 302.255C253.627 305.133 247.724 307.579 241.688 309.577C240.509 309.964 239.334 310.339 238.145 310.687C236.904 311.063 235.664 311.416 234.408 311.748C225.067 314.238 215.508 315.643 205.893 315.939C204.597 315.983 203.29 315.999 201.979 315.999C201.328 315.999 200.688 315.994 200.037 315.988C199.839 315.988 199.64 315.983 199.442 315.977C198.868 315.961 198.273 315.95 197.673 315.933C186.071 315.54 174.564 313.53 163.434 309.953L162.961 309.804C162.229 309.561 161.502 309.323 160.775 309.069C157.42 307.915 154.113 306.623 150.857 305.193C148.371 304.105 145.913 302.938 143.485 301.692C143.463 301.685 143.442 301.674 143.424 301.659C142.916 301.405 142.402 301.14 141.894 300.869C141.828 300.831 141.757 300.792 141.685 300.753C139.789 299.748 137.913 298.695 136.058 297.595C134.497 293.702 132.301 292.956 130.938 289.533C130.542 288.515 130.255 287.452 130.084 286.363C130.084 286.352 130.079 286.341 130.079 286.324C130.222 288.378 129.474 282.68 130.074 286.302C130.069 286.236 130.064 286.164 130.059 286.081C130.044 285.883 130.023 285.64 129.993 285.336C128.249 266.843 128.361 245.694 127.603 228.266C127.553 227.14 127.5 226.061 127.446 225.03C127.431 224.688 127.41 224.351 127.39 224.02C127.426 223.92 127.466 223.815 127.512 223.716C127.522 223.687 127.534 223.66 127.548 223.633C127.563 223.599 127.579 223.566 127.598 223.534C127.609 223.517 127.624 223.495 127.634 223.479C127.641 223.46 127.65 223.441 127.659 223.423C127.705 223.346 127.756 223.263 127.812 223.186C127.837 223.153 127.858 223.125 127.883 223.098C127.901 223.069 127.921 223.043 127.944 223.02C127.96 222.994 127.978 222.97 128 222.948C128.02 222.926 128.041 222.899 128.066 222.871C128.077 222.854 128.091 222.839 128.107 222.827C128.147 222.777 128.191 222.731 128.239 222.689C128.42 222.508 128.614 222.342 128.818 222.192C128.89 222.142 128.966 222.093 129.037 222.037C129.549 221.704 130.089 221.423 130.649 221.198C130.842 221.121 131.035 221.049 131.243 220.972C131.32 220.95 131.391 220.922 131.467 220.894C131.579 220.856 131.691 220.817 131.808 220.789C132.387 220.602 133.013 220.441 133.689 220.292C133.77 220.276 133.856 220.259 133.943 220.237C134.065 220.21 134.192 220.187 134.319 220.165C134.492 220.132 134.67 220.099 134.848 220.066C136.358 219.806 138.071 219.613 139.962 219.486C140.14 219.475 140.318 219.464 140.496 219.453C140.704 219.442 140.913 219.431 141.126 219.42C141.304 219.409 141.487 219.403 141.67 219.398C141.848 219.387 142.031 219.381 142.219 219.376C142.733 219.359 143.261 219.343 143.8 219.332C145.336 219.298 146.952 219.309 148.65 219.348C149.438 219.37 150.241 219.392 151.065 219.431C151.121 219.431 151.172 219.436 151.223 219.436C151.939 219.464 152.661 219.497 153.403 219.541C153.922 219.569 154.446 219.597 154.969 219.63C155.462 219.663 155.961 219.696 156.464 219.735C156.855 219.757 157.247 219.79 157.643 219.818C157.979 219.845 158.314 219.873 158.65 219.895L159.107 219.928C159.357 219.95 159.606 219.967 159.86 219.994C160.419 220.044 160.978 220.094 161.548 220.143C162.112 220.199 162.686 220.254 163.261 220.309C163.835 220.364 164.415 220.425 164.994 220.486C165.055 220.491 165.111 220.497 165.167 220.502C165.696 220.563 166.225 220.618 166.759 220.679C166.881 220.69 167.008 220.701 167.13 220.718C167.639 220.773 168.157 220.838 168.671 220.897C168.829 220.916 168.985 220.934 169.144 220.953C169.546 221 169.942 221.041 170.348 221.093C170.881 221.159 171.425 221.22 171.954 221.297C172.366 221.347 172.778 221.397 173.189 221.452C173.835 221.535 174.491 221.623 175.147 221.717C175.396 221.75 175.645 221.783 175.894 221.822C177.765 222.076 179.656 222.358 181.578 222.65C184.491 223.098 187.449 223.584 190.428 224.108C193.413 224.633 196.414 225.187 199.432 225.77C200.194 225.919 200.957 226.068 201.725 226.223C202.07 226.295 202.416 226.367 202.762 226.438C203.351 226.554 203.941 226.676 204.531 226.797C205.12 226.919 205.71 227.04 206.3 227.167C207.001 227.316 207.708 227.465 208.41 227.615C213.031 228.608 217.626 229.669 222.11 230.779C222.848 230.961 223.585 231.149 224.317 231.331C225.781 231.701 227.231 232.076 228.668 232.457C229.065 232.557 229.456 232.662 229.848 232.767C230.824 233.032 231.8 233.297 232.761 233.567L232.929 233.617C233.635 233.805 234.327 233.998 235.018 234.197C236.65 234.661 238.255 235.13 239.832 235.605C240.88 235.92 241.915 236.238 242.939 236.56C244.469 237.041 245.968 237.526 247.427 238.018C247.788 238.139 248.149 238.261 248.505 238.377C249.573 238.736 250.625 239.1 251.647 239.465C252.46 239.752 253.253 240.045 254.036 240.337C254.819 240.63 255.587 240.923 256.339 241.215C256.822 241.403 257.3 241.602 257.778 241.789C258.464 242.066 259.14 242.342 259.801 242.618C260.005 242.701 260.203 242.789 260.401 242.872C260.528 242.933 260.65 242.982 260.772 243.037C261.011 243.142 261.255 243.242 261.489 243.347C261.728 243.446 261.962 243.551 262.196 243.661C262.425 243.761 262.658 243.866 262.882 243.971C263.111 244.07 263.335 244.175 263.558 244.285C263.746 244.368 263.929 244.457 264.107 244.545C264.468 244.716 264.829 244.887 265.18 245.064C265.353 245.152 265.526 245.235 265.698 245.324L266.095 245.522C266.151 245.555 266.207 245.583 266.263 245.611C266.39 245.677 266.522 245.749 266.649 245.815C266.944 245.964 267.234 246.124 267.518 246.273C267.9 246.483 268.271 246.693 268.627 246.897C268.988 247.107 269.338 247.317 269.674 247.521C269.73 247.554 269.781 247.588 269.837 247.621C269.913 247.665 269.989 247.715 270.065 247.759C270.325 247.919 270.574 248.085 270.823 248.245C271.311 248.57 271.774 248.891 272.206 249.211C272.302 249.283 272.394 249.355 272.49 249.421C272.811 249.669 273.116 249.912 273.4 250.161C273.4 250.166 273.4 250.166 273.405 250.166C273.502 250.244 273.594 250.326 273.685 250.404C273.761 250.481 273.843 250.547 273.919 250.625C274.183 250.873 274.427 251.11 274.651 251.353C274.726 251.428 274.797 251.508 274.865 251.591C274.894 251.618 274.921 251.647 274.946 251.679C275.048 251.79 275.139 251.9 275.225 252.011C275.239 252.026 275.251 252.042 275.261 252.06C275.383 252.215 275.495 252.37 275.602 252.524C275.652 252.601 275.708 252.679 275.754 252.756C275.815 252.85 275.876 252.949 275.927 253.043C275.973 253.121 276.013 253.203 276.054 253.281C276.162 253.48 276.254 253.688 276.329 253.905C276.386 254.051 276.432 254.203 276.466 254.357C276.504 254.504 276.533 254.654 276.552 254.805Z" fill="#2F2E41"/>
<path opacity="0.2" d="M276.552 254.805C276.547 255.771 276.537 257.124 276.496 258.797C276.491 259.029 276.481 259.267 276.476 259.51C276.425 261.856 276.349 264.755 276.242 268.03C276.237 268.229 276.232 268.422 276.222 268.621C276.08 272.619 275.856 277.274 275.469 284.646C274.753 298.263 273.502 286.518 272.246 291.294C268.759 288.964 264.936 286.523 260.849 284.016C260.111 283.563 259.368 283.109 258.617 282.652C250.442 277.699 241.312 272.508 231.78 267.367C231.404 267.163 231.022 266.959 230.646 266.76C208.811 255.037 184.979 243.634 165.671 236.025C161.944 234.556 158.386 233.23 155.04 232.065C147.994 229.619 141.904 227.907 137.217 227.167C132.336 226.394 128.966 226.67 127.603 228.266C127.553 227.14 127.5 226.061 127.446 225.03C127.425 224.688 127.405 224.351 127.385 224.02C127.416 223.929 127.457 223.842 127.496 223.755C127.502 223.742 127.506 223.729 127.512 223.716C127.522 223.687 127.534 223.66 127.547 223.633C127.562 223.599 127.579 223.566 127.598 223.534C127.615 223.495 127.635 223.458 127.659 223.423C127.705 223.346 127.756 223.263 127.812 223.186C127.853 223.128 127.897 223.073 127.944 223.02C127.96 222.994 127.978 222.969 128 222.948C128.02 222.926 128.041 222.899 128.066 222.871C128.077 222.854 128.091 222.839 128.107 222.827C128.147 222.777 128.191 222.731 128.239 222.689C128.42 222.508 128.614 222.341 128.818 222.192C128.89 222.142 128.966 222.093 129.037 222.037C129.549 221.704 130.089 221.423 130.649 221.198C130.842 221.121 131.035 221.049 131.243 220.972C131.32 220.949 131.391 220.922 131.467 220.894C131.579 220.856 131.691 220.817 131.808 220.789C132.387 220.602 133.013 220.441 133.689 220.292C133.892 220.248 134.106 220.204 134.319 220.165C134.492 220.132 134.67 220.099 134.848 220.066C136.358 219.806 138.071 219.613 139.962 219.486C140.14 219.475 140.318 219.464 140.496 219.453C140.704 219.442 140.913 219.431 141.126 219.42C141.304 219.409 141.487 219.403 141.67 219.398C141.848 219.387 142.031 219.381 142.219 219.376C142.733 219.359 143.261 219.343 143.8 219.332C145.336 219.304 146.952 219.315 148.65 219.354C149.438 219.37 150.241 219.398 151.065 219.436C151.116 219.436 151.172 219.442 151.223 219.442C151.939 219.464 152.666 219.503 153.403 219.541C153.922 219.569 154.446 219.597 154.969 219.63C155.462 219.663 155.961 219.696 156.464 219.735C156.855 219.757 157.247 219.79 157.643 219.817C157.979 219.845 158.314 219.873 158.65 219.895C159.051 219.928 159.453 219.961 159.86 219.994C160.419 220.044 160.978 220.094 161.548 220.143C162.112 220.198 162.686 220.254 163.261 220.309C163.835 220.364 164.415 220.425 164.994 220.486C165.055 220.491 165.111 220.497 165.167 220.502C165.696 220.563 166.225 220.618 166.758 220.679C169.717 221.005 172.762 221.386 175.894 221.822C177.765 222.081 179.659 222.359 181.578 222.656C184.491 223.103 187.449 223.589 190.428 224.108C193.413 224.633 196.414 225.187 199.432 225.77C200.194 225.919 200.957 226.068 201.725 226.223C202.66 226.411 203.595 226.602 204.531 226.797C205.12 226.919 205.71 227.04 206.3 227.167C207.001 227.316 207.708 227.465 208.41 227.615C213.031 228.608 217.626 229.669 222.11 230.779C222.848 230.961 223.585 231.149 224.317 231.331C225.781 231.701 227.231 232.076 228.668 232.457C229.065 232.562 229.456 232.667 229.848 232.772C230.829 233.037 231.8 233.302 232.761 233.567V233.573C232.817 233.584 232.873 233.6 232.929 233.617C233.63 233.81 234.327 234.003 235.018 234.202C236.65 234.666 238.255 235.134 239.832 235.605C240.88 235.925 241.917 236.24 242.939 236.56C244.469 237.046 245.968 237.532 247.427 238.018C247.788 238.139 248.149 238.261 248.505 238.377C249.573 238.741 250.62 239.104 251.647 239.465C252.46 239.752 253.253 240.044 254.036 240.337C254.819 240.63 255.587 240.923 256.339 241.215C256.827 241.403 257.305 241.596 257.778 241.784C258.469 242.06 259.14 242.336 259.801 242.618C260.005 242.701 260.203 242.789 260.401 242.872C260.772 243.026 261.133 243.187 261.489 243.347C261.728 243.446 261.962 243.551 262.196 243.661C262.425 243.761 262.658 243.866 262.882 243.971C263.111 244.07 263.335 244.175 263.558 244.285C263.746 244.368 263.929 244.457 264.107 244.545C264.468 244.716 264.829 244.887 265.18 245.064C265.353 245.152 265.526 245.235 265.699 245.324L266.095 245.522C266.151 245.555 266.207 245.583 266.263 245.611C266.695 245.832 267.112 246.052 267.518 246.273C267.9 246.483 268.271 246.693 268.627 246.897C269.049 247.14 269.45 247.378 269.837 247.621C269.913 247.665 269.989 247.715 270.065 247.759C270.325 247.919 270.574 248.085 270.823 248.245C271.311 248.57 271.774 248.891 272.206 249.211C272.633 249.531 273.029 249.846 273.4 250.161C273.4 250.166 273.4 250.166 273.405 250.166C273.583 250.321 273.756 250.475 273.919 250.625C274.183 250.873 274.427 251.11 274.651 251.353C274.726 251.428 274.797 251.508 274.864 251.591C274.894 251.618 274.921 251.647 274.946 251.679C275.053 251.806 275.159 251.933 275.261 252.06C275.383 252.215 275.495 252.37 275.602 252.524C275.653 252.601 275.708 252.679 275.754 252.756C275.815 252.85 275.876 252.949 275.927 253.043C275.973 253.121 276.013 253.203 276.054 253.281C276.162 253.48 276.254 253.688 276.329 253.905C276.384 254.052 276.43 254.203 276.466 254.357C276.504 254.504 276.533 254.654 276.552 254.805Z" fill="black"/>
</g>
<defs>
<clipPath id="clip0_5_323">
<rect width="400" height="316" fill="white"/>
</clipPath>
</defs>
</svg>
