<svg width="30" height="30" viewBox="0 0 30 30" fill="none" xmlns="http://www.w3.org/2000/svg">
<g clip-path="url(#clip0_19_265)">
<path d="M15 0C11.4382 0.000147697 7.99271 1.26766 5.27998 3.57575C2.56725 5.88383 0.764318 9.08187 0.19377 12.5976C-0.376778 16.1134 0.322296 19.7175 2.16591 22.765C4.00951 25.8125 6.87735 28.1045 10.2563 29.231C11.0063 29.3623 11.2875 28.9123 11.2875 28.5185C11.2875 28.1623 11.2688 26.981 11.2688 25.7248C7.50002 26.4185 6.52503 24.8061 6.22503 23.9624C5.89214 23.1418 5.36445 22.4146 4.68754 21.8436C4.16254 21.5623 3.41255 20.8686 4.66877 20.8499C5.14845 20.9019 5.60851 21.0688 6.00997 21.3365C6.41144 21.6041 6.74247 21.9646 6.97502 22.3873C7.18018 22.7559 7.45604 23.0803 7.7868 23.3421C8.11756 23.6038 8.49672 23.7977 8.90256 23.9127C9.30839 24.0276 9.73292 24.0614 10.1518 24.012C10.5707 23.9626 10.9757 23.831 11.3437 23.6248C11.4086 22.8623 11.7485 22.1493 12.3 21.6186C8.96251 21.2436 5.47503 19.9498 5.47503 14.2124C5.45395 12.7217 6.00406 11.2793 7.01252 10.1812C6.55395 8.88556 6.6076 7.46367 7.16252 6.20625C7.16252 6.20625 8.41872 5.81249 11.2875 7.74374C13.7419 7.06871 16.333 7.06871 18.7874 7.74374C21.6561 5.79375 22.9124 6.20625 22.9124 6.20625C23.4674 7.46365 23.5211 8.88557 23.0624 10.1812C24.0739 11.2775 24.6245 12.7211 24.5999 14.2124C24.5999 19.9686 21.0936 21.2436 17.7562 21.6186C18.1142 21.9815 18.3899 22.4171 18.5646 22.8959C18.7393 23.3747 18.8089 23.8855 18.7687 24.3936C18.7687 26.3999 18.7499 28.0123 18.7499 28.5186C18.7499 28.9124 19.0312 29.3811 19.7812 29.2311C23.1541 28.0954 26.0137 25.798 27.8495 22.7489C29.6853 19.6999 30.3777 16.0976 29.8032 12.5853C29.2287 9.0729 27.4246 5.87902 24.7131 3.57374C22.0016 1.26847 18.559 0.00185235 15 0Z" fill="black"/>
</g>
<defs>
<clipPath id="clip0_19_265">
<rect width="30" height="30" fill="white"/>
</clipPath>
</defs>
</svg>
