<svg width="50" height="50" viewBox="0 0 50 50" fill="none" xmlns="http://www.w3.org/2000/svg">
<g clip-path="url(#clip0_15_38)">
<path d="M6.96874 45.0021L2.95624 0H47.0437L43.0271 44.9958L24.9729 50L6.96874 45.0021Z" fill="#E44D26"/>
<path d="M25 46.175L39.5875 42.1292L43.0208 3.6792H25V46.175Z" fill="#F16529"/>
<path d="M25 20.3709H17.6979L17.1917 14.7188H25V9.198H11.1604L11.2917 10.6792L12.6479 25.8876H25V20.3709ZM25 34.7042L24.975 34.7105L18.8292 33.0501L18.4354 28.648H12.8958L13.6688 37.3147L24.975 40.4542L25 40.4459V34.7042Z" fill="#EBEBEB"/>
<path d="M24.9813 20.3709V25.8897H31.7792L31.1375 33.048L24.9813 34.7084V40.4501L36.2958 37.3147L36.3792 36.3813L37.6771 21.8522L37.8104 20.3688H36.3229L24.9813 20.3709ZM24.9813 9.198V14.7188H38.3125L38.4229 13.4772L38.675 10.6792L38.8063 9.198H24.9813Z" fill="white"/>
<path d="M25 49.9917L24.9729 50H25V49.9917Z" fill="#DEDEDE"/>
<path d="M25 14.7188H17.1917L17.6958 20.3708H24.9792H25V14.7188ZM25 0H2.95624L6.96874 45.0021L24.9729 50L25 49.9917V40.4458L24.975 40.4542L13.6687 37.3146L12.8958 28.6479H18.4354L18.8292 33.05L24.975 34.7104L24.9812 34.7083L25 34.7042V25.8896H12.6479L11.2917 10.6812L11.1604 9.19792H24.9812H25V0Z" fill="#C64321"/>
<path d="M18.4354 28.648H12.8958L13.6688 37.3147L24.975 40.4542L25 40.4459L24.9813 40.4501V34.7084L24.975 34.7105L18.8292 33.0501L18.4354 28.648ZM24.9813 9.198H11.1604L11.2917 10.6792L12.6479 25.8876H25H24.9813V20.3709H17.6979L17.1917 14.7188H25H24.9813V9.198Z" fill="#CDCDCD"/>
<path d="M25 34.7042L24.9813 34.7084V40.4501L25 40.4459V34.7042ZM25 20.3709H24.9813V25.8897H25V20.3709ZM25 9.198H24.9813V14.7188H25V9.198Z" fill="#DEDEDE"/>
</g>
<defs>
<clipPath id="clip0_15_38">
<rect width="50" height="50" fill="white"/>
</clipPath>
</defs>
</svg>
