<svg width="50" height="50" viewBox="0 0 50 50" fill="none" xmlns="http://www.w3.org/2000/svg">
<g clip-path="url(#clip0_15_53)">
<path d="M22.7497 0.634633C24.1092 -0.071927 25.8799 -0.0751184 27.2382 0.634633C34.0716 4.14066 40.9073 7.64119 47.7396 11.1494C49.0246 11.8066 49.8842 13.1052 49.8711 14.4497V35.5433C49.8807 36.9435 48.9362 38.2731 47.5804 38.9155C40.7694 42.4022 33.9619 45.8931 27.1521 49.3798C25.7645 50.1002 23.9582 50.0447 22.614 49.2653C20.5721 48.1905 18.5266 47.121 16.4845 46.0472C16.0672 45.8213 15.5968 45.6415 15.3021 45.2742C15.5626 44.9554 16.0283 44.9157 16.4068 44.7765C17.2591 44.5304 18.0419 44.1353 18.825 43.752C19.023 43.629 19.2647 43.6761 19.4545 43.7862C21.2006 44.6953 22.9313 45.6307 24.6833 46.5311C25.057 46.727 25.4354 46.4669 25.7549 46.3052C32.4386 42.8752 39.1305 39.4582 45.813 36.0272C46.0606 35.919 46.1975 35.6804 46.1774 35.4341C46.1821 28.4758 46.1786 21.5162 46.1797 14.5579C46.2081 14.2784 46.03 14.0215 45.7517 13.9072C38.9643 10.4364 32.1805 6.96034 25.3942 3.48871C25.2767 3.41532 25.1374 3.37594 24.9947 3.37575C24.852 3.37556 24.7126 3.41457 24.5948 3.48765C17.8086 6.96034 11.0259 10.4396 4.23969 13.9102C3.96241 14.0247 3.77631 14.2774 3.80932 14.5579C3.81049 21.5162 3.80932 28.4758 3.80932 35.4352C3.79755 35.5553 3.82661 35.6759 3.8926 35.7806C3.95858 35.8853 4.05832 35.9691 4.17838 36.0208C5.98931 36.9533 7.80258 37.8791 9.61469 38.8084C10.6356 39.3073 11.889 39.6038 13.0137 39.2215C14.0063 38.8983 14.7021 37.9786 14.6831 37.0217C14.6925 30.104 14.6784 23.1852 14.6901 16.2685C14.6653 15.9614 14.9862 15.7077 15.315 15.7366C16.1851 15.7313 17.0564 15.7259 17.9265 15.7387C18.2897 15.7313 18.5397 16.0619 18.4948 16.3713C18.4913 23.3329 18.5041 30.2946 18.4889 37.2561C18.4913 39.1114 17.6518 41.1302 15.7618 42.038C13.4334 43.1332 10.5555 42.9009 8.25522 41.8508C6.26386 40.9483 4.36349 39.8832 2.40747 38.9164C1.0482 38.2775 0.108367 36.9426 0.117935 35.5435V14.4497C0.103681 13.0774 0.997431 11.7552 2.32253 11.1075C9.13237 7.61797 15.941 4.12577 22.7497 0.634633Z" fill="#8CC84B"/>
<path d="M28.6906 15.2462C31.6606 15.0727 34.8402 15.1434 37.5129 16.472C39.5822 17.49 40.7294 19.6267 40.7659 21.7142C40.7081 21.9957 40.3839 22.151 40.0879 22.1317C39.2262 22.1306 38.3643 22.1423 37.5025 22.1264C37.137 22.1392 36.9245 21.8331 36.8786 21.5397C36.631 20.5409 36.0312 19.5517 34.9959 19.07C33.4066 18.3475 31.5638 18.3838 29.8308 18.3989C28.5656 18.4599 27.2052 18.5594 26.1333 19.2349C25.3105 19.7466 25.0605 20.7796 25.3542 21.6115C25.6311 22.2088 26.3905 22.4016 27.0119 22.5792C30.5912 23.4292 34.3841 23.3447 37.895 24.4633C39.3486 24.9193 40.7706 25.8058 41.2681 27.1877C41.919 29.0399 41.6337 31.2537 40.1824 32.7406C39.0055 33.9642 37.2914 34.6301 35.5819 34.9918C33.3076 35.4523 30.9473 35.464 28.6377 35.2595C26.4659 35.0347 24.2058 34.5166 22.5292 33.173C21.0956 32.0427 20.3953 30.2815 20.4649 28.5817C20.4815 28.2946 20.7962 28.0945 21.0991 28.1181C21.9669 28.1117 22.8347 28.1095 23.7024 28.1191C24.049 28.0966 24.306 28.3686 24.3238 28.6652C24.4839 29.6168 24.8778 30.6156 25.7916 31.1798C27.5553 32.2129 29.7683 32.1422 31.7878 32.1711C33.4608 32.1037 35.3389 32.0833 36.7043 31.0792C37.4246 30.5065 37.6381 29.5484 37.4434 28.7241C37.2325 28.0282 36.4307 27.7039 35.7422 27.4918C32.2088 26.4769 28.3735 26.8452 24.8742 25.6975C23.4537 25.2416 22.0799 24.3798 21.5342 23.0546C20.7726 21.179 21.1215 18.8592 22.7249 17.4225C24.2882 15.9934 26.545 15.4432 28.6906 15.2462Z" fill="#8CC84B"/>
</g>
<defs>
<clipPath id="clip0_15_53">
<rect width="50" height="50" fill="white"/>
</clipPath>
</defs>
</svg>
