<svg width="25" height="24" viewBox="0 0 25 24" fill="none" xmlns="http://www.w3.org/2000/svg">
<path d="M12.4999 11C13.2911 11 14.0644 10.7654 14.7222 10.3259C15.38 9.88635 15.8927 9.26164 16.1955 8.53074C16.4982 7.79983 16.5774 6.99556 16.4231 6.21964C16.2687 5.44372 15.8878 4.73098 15.3284 4.17157C14.769 3.61216 14.0562 3.2312 13.2803 3.07686C12.5044 2.92252 11.7001 3.00173 10.9692 3.30448C10.2383 3.60723 9.61359 4.11992 9.17406 4.77772C8.73454 5.43552 8.49994 6.20888 8.49994 7C8.49994 8.06087 8.92137 9.07828 9.67151 9.82843C10.4217 10.5786 11.4391 11 12.4999 11ZM18.4999 21C18.7652 21 19.0195 20.8946 19.207 20.7071C19.3946 20.5196 19.4999 20.2652 19.4999 20C19.4999 18.1435 18.7624 16.363 17.4497 15.0503C16.1369 13.7375 14.3565 13 12.4999 13C10.6434 13 8.86295 13.7375 7.55019 15.0503C6.23744 16.363 5.49994 18.1435 5.49994 20C5.49994 20.2652 5.6053 20.5196 5.79283 20.7071C5.98037 20.8946 6.23472 21 6.49994 21H18.4999Z" fill="white"/>
</svg>
