<svg width="25" height="24" viewBox="0 0 25 24" fill="none" xmlns="http://www.w3.org/2000/svg">
<path d="M20.9809 15.4867L19.3309 13.8367C18.8391 13.3488 18.1752 13.0737 17.4824 13.0708C16.7896 13.0678 16.1234 13.3372 15.6274 13.8209C15.3628 14.0871 15.0136 14.2527 14.6401 14.2893C14.2665 14.3258 13.8919 14.231 13.5807 14.0212C12.3523 13.2014 11.2971 12.1482 10.4749 10.9214C10.2688 10.6068 10.1774 10.2306 10.2162 9.85646C10.255 9.48227 10.4216 9.1329 10.6879 8.8672C11.1672 8.37075 11.4332 7.7064 11.4288 7.01633C11.4245 6.32627 11.1502 5.66532 10.6647 5.17495L9.01466 3.52495C8.52067 3.03265 7.8517 2.75623 7.15429 2.75623C6.45688 2.75623 5.7879 3.03265 5.29391 3.52495L4.81916 4.00045C2.34416 6.47545 2.52941 11.6789 7.67891 16.8254C10.7839 19.9312 13.9092 21.2317 16.4434 21.2317C17.1894 21.2565 17.9329 21.1327 18.6305 20.8673C19.3282 20.6019 19.966 20.2003 20.5069 19.6859L20.9824 19.2104C21.4756 18.7162 21.7525 18.0465 21.7522 17.3483C21.7519 16.6501 21.4745 15.9805 20.9809 15.4867ZM19.9204 18.1499L19.4449 18.6254C17.4949 20.5754 13.1907 20.2192 8.73791 15.7657C4.28516 11.3122 3.92816 7.00495 5.87816 5.05495L6.34991 4.5802C6.56232 4.36856 6.84994 4.24973 7.14979 4.24973C7.44963 4.24973 7.73726 4.36856 7.94966 4.5802L9.59966 6.2302C9.80821 6.43979 9.92658 6.72259 9.92953 7.01824C9.93247 7.3139 9.81975 7.59899 9.61541 7.8127C9.10862 8.32272 8.79249 8.99141 8.71999 9.70675C8.64748 10.4221 8.82301 11.1406 9.21716 11.7419C10.1513 13.1399 11.3526 14.3394 12.7519 15.2714C13.3514 15.6657 14.0681 15.8422 14.7821 15.7716C15.4962 15.7011 16.1644 15.3876 16.6752 14.8837C16.8885 14.6769 17.1744 14.5621 17.4714 14.564C17.7685 14.5658 18.0529 14.6841 18.2637 14.8934L19.9137 16.5434C20.02 16.6483 20.1046 16.7731 20.1625 16.9107C20.2204 17.0483 20.2506 17.196 20.2512 17.3453C20.2518 17.4946 20.2229 17.6426 20.1662 17.7807C20.1094 17.9187 20.0259 18.0443 19.9204 18.1499Z" fill="white"/>
</svg>
