<svg width="50" height="50" viewBox="0 0 50 50" fill="none" xmlns="http://www.w3.org/2000/svg">
<path d="M41.25 17.9588C39.3751 17.2285 37.7202 15.9152 36.475 14.1696C35.1026 12.2248 33.3551 10.6608 31.3663 9.59719C29.3774 8.53363 27.1997 7.99871 25 8.03337C22.0409 7.79633 19.1115 8.82866 16.795 10.9248C14.4786 13.0209 12.9451 16.027 12.5 19.3445C13.3767 17.6852 14.6961 16.3834 16.2685 15.6263C17.8408 14.8691 19.585 14.6958 21.25 15.1311C23.1217 15.8827 24.774 17.2036 26.025 18.9486C27.4049 20.8779 29.1557 22.4258 31.1442 23.4744C33.1326 24.523 35.3064 25.0448 37.5 25C40.4591 25.237 43.3885 24.2047 45.705 22.1086C48.0214 20.0125 49.5549 17.0064 50 13.6889C49.1392 15.368 47.824 16.6895 46.2484 17.4583C44.6729 18.2272 42.9205 18.4027 41.25 17.9588ZM8.75 32.0412C10.6249 32.7715 12.2798 34.0848 13.525 35.8304C14.8974 37.7752 16.6449 39.3392 18.6337 40.4028C20.6226 41.4664 22.8003 42.0013 25 41.9666C27.9591 42.2037 30.8885 41.1713 33.205 39.0752C35.5214 36.9791 37.0549 33.973 37.5 30.6555C36.6233 32.3148 35.3039 33.6166 33.7315 34.3737C32.1592 35.1309 30.415 35.3042 28.75 34.8689C26.8783 34.1173 25.226 32.7964 23.975 31.0514C22.5914 29.1269 20.8399 27.5824 18.8523 26.5342C16.8647 25.4861 14.6928 24.9615 12.5 25C9.54091 24.763 6.61146 25.7953 4.29501 27.8914C1.97857 29.9875 0.445105 32.9936 0 36.3111C0.860767 34.632 2.17602 33.3105 3.75158 32.5417C5.32715 31.7728 7.07952 31.5973 8.75 32.0412Z" fill="#56C0DD"/>
</svg>
