<svg width="50" height="50" viewBox="0 0 50 50" fill="none" xmlns="http://www.w3.org/2000/svg">
<g clip-path="url(#clip0_15_58)">
<mask id="mask0_15_58" style="mask-type:luminance" maskUnits="userSpaceOnUse" x="0" y="0" width="50" height="50">
<path d="M0.000305176 0H49.9999V50H0.000305176V0Z" fill="white"/>
</mask>
<g mask="url(#mask0_15_58)">
<path d="M3.55381 24.9995C3.55381 33.4889 8.48717 40.8247 15.6409 44.3016L5.4106 16.2713C4.18422 19.0176 3.55149 21.9918 3.55381 24.9995ZM39.4785 23.9172C39.4785 21.2667 38.5264 19.4311 37.7098 18.0024C36.6227 16.2358 35.6041 14.7398 35.6041 12.9732C35.6041 11.0017 37.0989 9.16653 39.2051 9.16653C39.3002 9.16653 39.3903 9.17837 39.4834 9.18367C35.6674 5.688 30.5838 3.55371 25.0004 3.55371C17.5079 3.55371 10.9161 7.39789 7.08131 13.2205C7.58448 13.2356 8.05908 13.2458 8.46146 13.2458C10.7047 13.2458 14.1771 12.9736 14.1771 12.9736C15.3332 12.9054 15.4695 14.6035 14.3151 14.7402C14.3151 14.7402 13.1528 14.8769 11.86 14.9446L19.67 38.175L24.3638 24.0988L21.022 14.9442C19.8671 14.8765 18.773 14.7398 18.773 14.7398C17.6173 14.672 17.7528 12.905 18.9085 12.9732C18.9085 12.9732 22.4503 13.2454 24.5576 13.2454C26.8005 13.2454 30.2733 12.9732 30.2733 12.9732C31.4302 12.905 31.5661 14.6031 30.4108 14.7398C30.4108 14.7398 29.2465 14.8765 27.9562 14.9442L35.7066 37.9987L37.8453 30.8502C38.7729 27.8838 39.4785 25.7532 39.4785 23.9172Z" fill="#00749A"/>
<path d="M25.3767 26.8754L18.942 45.5731C20.9092 46.1529 22.9495 46.4473 25.0004 46.4473C27.4979 46.4473 29.893 46.0151 32.1223 45.2316C32.0625 45.138 32.0114 45.0391 31.9697 44.9361L25.3767 26.8754ZM43.8189 14.71C43.9111 15.3931 43.9634 16.1268 43.9634 16.9153C43.9634 19.0916 43.5569 21.5381 42.3327 24.5971L35.7817 43.5376C42.1576 39.8195 46.4462 32.9118 46.4462 24.9995C46.4519 21.403 45.5481 17.8634 43.8189 14.71Z" fill="#00749A"/>
<path d="M25.0005 0C11.2158 0 0.000305176 11.2146 0.000305176 24.9994C0.000305176 38.7858 11.2153 50.0004 25.0005 50.0004C38.7849 50.0004 50.0019 38.7862 50.0019 24.9994C50.0015 11.2146 38.7849 0 25.0005 0ZM25.0005 48.8541C11.8479 48.8541 1.14662 38.1528 1.14662 24.9994C1.14662 11.8472 11.8475 1.14672 25.0005 1.14672C38.1527 1.14672 48.8532 11.8472 48.8532 24.9994C48.8532 38.1528 38.1523 48.8541 25.0005 48.8541Z" fill="#00749A"/>
</g>
</g>
<defs>
<clipPath id="clip0_15_58">
<rect width="50" height="50" fill="white"/>
</clipPath>
</defs>
</svg>
