<svg width="44" height="44" viewBox="0 0 44 44" fill="none" xmlns="http://www.w3.org/2000/svg">
<g clip-path="url(#clip0_12_1022)">
<rect x="12.8846" y="24.4314" width="15" height="11" transform="rotate(-46.937 12.8846 24.4314)" fill="white"/>
<path d="M13.465 31.1332C15.2712 32.8212 17.5124 33.9626 19.9052 34.4128C22.298 34.8631 24.7349 34.602 26.9077 33.6627C29.0805 32.7234 30.8917 31.148 32.1122 29.1357C33.3326 27.1234 33.9076 24.7646 33.7644 22.3576C33.6211 19.9506 32.7661 17.6035 31.3074 15.6132C29.8487 13.6228 27.8519 12.0785 25.5695 11.1755C23.287 10.2726 20.8214 10.0517 18.4845 10.5406C16.1476 11.0295 14.0444 12.2063 12.4407 13.9222C11.3759 15.0616 10.5578 16.4105 10.033 17.892C9.50819 19.3736 9.28704 20.9587 9.38215 22.5569C9.57424 25.7846 11.0429 28.8695 13.465 31.1332ZM19.7115 17.6941L24.7702 17.7733C24.8442 17.7736 24.9181 17.7876 24.9883 17.8146C25.0657 17.8179 25.1426 17.8348 25.2155 17.8644C25.3677 17.9206 25.5081 18.0074 25.6276 18.1191C25.7471 18.2308 25.8431 18.365 25.9096 18.513C25.9831 18.6591 26.0276 18.8167 26.0407 18.9769L26.3479 24.1402C26.3672 24.4643 26.2568 24.7761 26.0408 25.0072C25.8249 25.2382 25.5212 25.3695 25.1966 25.3722C24.8719 25.3748 24.5529 25.2486 24.3097 25.0213C24.0665 24.794 23.919 24.4843 23.8997 24.1602L23.7757 21.9313L19.2432 26.7811C19.0282 27.0112 18.7257 27.142 18.4024 27.1446C18.079 27.1473 17.7613 27.0216 17.5191 26.7952C17.2769 26.5689 17.13 26.2604 17.1108 25.9376C17.0916 25.6148 17.2016 25.3042 17.4167 25.0741L22.006 20.1636L19.7961 20.13C19.4721 20.1246 19.1569 19.9912 18.9199 19.759C18.6829 19.5268 18.5434 19.2149 18.5322 18.8919C18.521 18.5689 18.6389 18.2612 18.8601 18.0366C19.0812 17.812 19.3875 17.6888 19.7115 17.6941Z" fill="black"/>
</g>
<defs>
<clipPath id="clip0_12_1022">
<rect width="30" height="30" fill="white" transform="translate(0.79892 22.7175) rotate(-46.937)"/>
</clipPath>
</defs>
</svg>
