<svg width="50" height="50" viewBox="0 0 50 50" fill="none" xmlns="http://www.w3.org/2000/svg">
<g clip-path="url(#clip0_5_429)">
<path d="M44 11H6C5.45 11 5 11.45 5 12V37C5 37.55 5.45 38 6 38H44C44.55 38 45 37.55 45 37V12C45 11.45 44.55 11 44 11ZM41.6 13L25 29.6L8.4 13H41.6ZM7 14.4L17.1 24.5L7 34.6V14.4ZM8.45 36L18.5 25.95L24.3 31.75C24.7 32.15 25.3 32.15 25.7 31.75L31.5 25.95L41.55 36H8.45ZM43 34.6L32.9 24.5L43 14.4V34.6Z" fill="#EBFF00"/>
<path d="M402 -255V587H-490V-255H402ZM406 -259H-494V591H406V-259Z" fill="#0000FF"/>
</g>
<defs>
<clipPath id="clip0_5_429">
<rect width="50" height="50" fill="white"/>
</clipPath>
</defs>
</svg>
