<svg width="24" height="21" viewBox="0 0 24 21" fill="none" xmlns="http://www.w3.org/2000/svg">
<path d="M9.13472 17.9224V15.3315C9.13472 14.6702 9.77211 14.134 10.5584 14.134H13.4325C13.8101 14.134 14.1722 14.2602 14.4392 14.4848C14.7062 14.7093 14.8562 15.0139 14.8562 15.3315V17.9224C14.8538 18.1974 14.982 18.4618 15.2123 18.6569C15.4426 18.8521 15.756 18.9618 16.0829 18.9618H18.0438C18.9596 18.9638 19.8387 18.6592 20.4871 18.1152C21.1355 17.5712 21.4999 16.8325 21.4999 16.0621V8.68107C21.4999 8.05879 21.172 7.46853 20.6046 7.06929L13.934 2.58794C12.7736 1.80221 11.1111 1.82758 9.98533 2.6482L3.46695 7.06929C2.87268 7.45676 2.51749 8.04877 2.49994 8.68107V16.0546C2.49994 17.6602 4.04732 18.9618 5.95611 18.9618H7.87223C8.55117 18.9618 9.10294 18.5011 9.10786 17.93L9.13472 17.9224Z" fill="white"/>
</svg>
