<?xml version="1.0" standalone="no"?>
<!DOCTYPE svg PUBLIC "-//W3C//DTD SVG 20010904//EN"
 "http://www.w3.org/TR/2001/REC-SVG-20010904/DTD/svg10.dtd">
<svg version="1.0" xmlns="http://www.w3.org/2000/svg"
 width="200.000000pt" height="200.000000pt" viewBox="0 0 200.000000 200.000000"
 preserveAspectRatio="xMidYMid meet">
<metadata>
Created by potrace 1.14, written by Peter Selinger 2001-2017
</metadata>
<g transform="translate(0.000000,200.000000) scale(0.100000,-0.100000)"
fill="#000000" stroke="none">
<path d="M0 1000 l0 -1000 1000 0 1000 0 0 1000 0 1000 -1000 0 -1000 0 0
-1000z m1463 443 c2 -5 -24 -89 -59 -188 -35 -99 -64 -183 -64 -187 0 -5 90
-8 200 -8 110 0 200 -3 200 -6 0 -15 -23 -45 -43 -56 -15 -9 -84 -15 -206 -18
l-185 -5 -47 -130 -47 -130 -96 -3 -96 -3 31 83 c52 140 59 160 59 174 0 11
-18 14 -74 14 l-74 0 -47 -52 c-144 -163 -325 -268 -463 -268 -66 0 -129 20
-162 50 -25 23 -30 36 -30 75 0 57 17 91 71 139 92 84 268 136 461 136 l106 0
162 195 161 195 119 0 c65 0 121 -3 123 -7z"/>
<path d="M1136 1200 l-107 -140 58 0 59 0 21 58 c12 31 35 94 52 140 17 45 29
82 27 82 -2 0 -52 -63 -110 -140z"/>
<path d="M703 969 c-123 -16 -213 -80 -213 -152 0 -55 70 -54 166 5 57 34 164
131 164 148 0 11 -28 11 -117 -1z"/>
</g>
</svg>
