<svg width="17" height="22" viewBox="0 0 17 22" fill="none" xmlns="http://www.w3.org/2000/svg">
<path opacity="0.8" d="M8.54679 19.1203C8.86261 19.1203 9.87638 18.6992 11.3268 17.3579C13.6312 15.2368 16.3216 11.5093 16.3216 8.00015C16.3216 5.92574 15.4975 3.9363 14.0307 2.46947C12.5639 1.00264 10.5744 0.178589 8.5 0.178589C6.42559 0.178589 4.43615 1.00264 2.96932 2.46947C1.5025 3.9363 0.67844 5.92574 0.67844 8.00015C0.67844 13.5135 7.10023 19.0034 8.54679 19.1203ZM8.5 3.34074C9.23724 3.34074 9.95791 3.55936 10.5709 3.96895C11.1839 4.37853 11.6617 4.96069 11.9438 5.64181C12.2259 6.32292 12.2997 7.0724 12.1559 7.79547C12.0121 8.51854 11.6571 9.18272 11.1358 9.70402C10.6145 10.2253 9.95027 10.5803 9.2272 10.7242C8.50414 10.868 7.75466 10.7942 7.07354 10.512C6.39242 10.2299 5.81026 9.75216 5.40068 9.13917C4.99109 8.52618 4.77248 7.8055 4.77248 7.06827C4.77351 6.07998 5.16656 5.13247 5.86538 4.43365C6.56421 3.73483 7.51172 3.34178 8.5 3.34074ZM17 19.8534C17 20.5825 14.0016 21.9979 8.5 21.9979C2.99839 21.9979 0 20.5825 0 19.8534C0 19.366 1.40367 18.4614 4.53073 17.9935C4.58507 17.9849 4.6377 17.9678 4.6867 17.9428C6.15275 19.327 7.58762 20.216 8.45321 20.2823H8.56239C9.73211 20.2823 11.436 18.8435 12.1222 18.2118C12.208 18.1339 12.2938 18.0481 12.3796 17.9623C12.409 17.9719 12.4389 17.9797 12.4693 17.9857C15.5963 18.4614 17 19.366 17 19.8534Z" fill="#5F7AFB"/>
</svg>
