<svg width="17" height="21" viewBox="0 0 17 21" fill="none" xmlns="http://www.w3.org/2000/svg">
<path opacity="0.8" d="M6.74174 8.90027H6.74162C6.47789 8.90028 6.22498 9.00506 6.03851 9.19155C5.85204 9.37804 5.74728 9.63096 5.74729 9.89468C5.7473 10.1584 5.85207 10.4113 6.03855 10.5978C6.22503 10.7843 6.47795 10.889 6.74168 10.889C7.0054 10.889 7.25832 10.7843 7.4448 10.5978C7.63129 10.4113 7.73605 10.1584 7.73606 9.89468C7.73607 9.63096 7.63132 9.37804 7.44485 9.19155C7.25838 9.00506 7.00546 8.90028 6.74174 8.90027ZM10.2874 8.90027C10.0703 8.88186 9.85263 8.92946 9.66298 9.03681C9.47332 9.14417 9.3205 9.30628 9.22451 9.50194C9.12853 9.69759 9.09385 9.91767 9.12503 10.1334C9.1562 10.349 9.25177 10.5503 9.39923 10.7108C9.54668 10.8712 9.73915 10.9835 9.95145 11.0327C10.1637 11.082 10.386 11.066 10.589 10.9869C10.7921 10.9077 10.9665 10.7691 11.0895 10.5892C11.2124 10.4093 11.2782 10.1964 11.2782 9.9785C11.284 9.84263 11.263 9.70695 11.2163 9.57922C11.1697 9.45148 11.0983 9.33419 11.0063 9.23406C10.9143 9.13392 10.8034 9.0529 10.6801 8.99563C10.5567 8.93835 10.4233 8.90595 10.2874 8.90027ZM15.0085 0.75H1.9915C1.72933 0.750619 1.46986 0.802874 1.22789 0.90378C0.985916 1.00469 0.766193 1.15227 0.581263 1.3381C0.396332 1.52392 0.249818 1.74436 0.150085 1.98681C0.0503524 2.22927 -0.000644529 2.489 6.14886e-06 2.75116V15.8849C-0.000633353 16.147 0.0503718 16.4067 0.150109 16.6492C0.249846 16.8916 0.396362 17.1121 0.581291 17.2979C0.766219 17.4837 0.985939 17.6313 1.2279 17.7322C1.46987 17.8331 1.72934 17.8853 1.9915 17.886H13.0074L12.4926 16.0888L13.7359 17.2448L14.9114 18.3328L17 20.1785V2.75116C17.0006 2.489 16.9496 2.22927 16.8499 1.98681C16.7502 1.74436 16.6037 1.52392 16.4187 1.3381C16.2338 1.15227 16.0141 1.00469 15.7721 0.90378C15.5301 0.802874 15.2707 0.750619 15.0085 0.75ZM11.2589 13.4368V13.4369C11.2589 13.4369 10.9091 13.0191 10.6176 12.65C11.3218 12.4842 11.9446 12.0747 12.376 11.494C12.0265 11.7266 11.6517 11.9189 11.2589 12.0671C10.8069 12.26 10.3343 12.4002 9.85026 12.4848C9.0183 12.638 8.16508 12.6347 7.33432 12.4751C6.84657 12.3797 6.36856 12.2399 5.90624 12.0574C5.66258 11.9637 5.42564 11.8534 5.1971 11.7271C5.16793 11.7077 5.13888 11.698 5.10971 11.6785C5.09509 11.6713 5.08193 11.6614 5.07086 11.6494C4.89608 11.5523 4.79877 11.4843 4.79877 11.4843C5.21456 12.0528 5.81587 12.4583 6.49882 12.6305C6.20749 12.9998 5.84802 13.4368 5.84802 13.4368C5.27098 13.4524 4.69896 13.3258 4.18232 13.0683C3.66567 12.8109 3.22023 12.4303 2.88522 11.9603C2.91676 9.9909 3.39504 8.05441 4.284 6.29682C5.06634 5.68239 6.02013 5.32599 7.01369 5.27682L7.11076 5.39344C6.17601 5.62474 5.30373 6.05922 4.556 6.66598C4.556 6.66598 4.76975 6.54942 5.12911 6.38427C5.82742 6.0655 6.57167 5.85897 7.33439 5.77232C7.38878 5.761 7.44406 5.75448 7.49959 5.75283C8.15054 5.66803 8.80931 5.66153 9.4618 5.73346C10.488 5.85063 11.4813 6.16742 12.3858 6.66598C11.676 6.08818 10.8516 5.66767 9.96708 5.43227L10.103 5.27692C11.0966 5.32604 12.0504 5.68245 12.8327 6.29692C13.7217 8.05446 14.2001 9.99094 14.2316 11.9603C13.8939 12.4299 13.4465 12.81 12.9284 13.0673C12.4103 13.3246 11.8372 13.4515 11.2589 13.4368Z" fill="#5F7AFB"/>
</svg>
