<svg width="17" height="13" viewBox="0 0 17 13" fill="none" xmlns="http://www.w3.org/2000/svg">
<path d="M0 1.49852V1.0625C0 0.780707 0.111942 0.510456 0.311199 0.311199C0.510456 0.111942 0.780707 0 1.0625 0L15.9375 0C16.2193 0 16.4895 0.111942 16.6888 0.311199C16.8881 0.510456 17 0.780707 17 1.0625V1.49852L8.5 6.81102L0 1.49852ZM8.78156 7.88813C8.69711 7.94084 8.59955 7.96879 8.5 7.96879C8.40045 7.96879 8.30289 7.94084 8.21844 7.88813L0 2.75148V11.6875C0 11.9693 0.111942 12.2395 0.311199 12.4388C0.510456 12.6381 0.780707 12.75 1.0625 12.75H15.9375C16.2193 12.75 16.4895 12.6381 16.6888 12.4388C16.8881 12.2395 17 11.9693 17 11.6875V2.75148L8.78156 7.88813Z" fill="#5F7AFB" fill-opacity="0.8"/>
</svg>
