<svg width="17" height="16" viewBox="0 0 17 16" fill="none" xmlns="http://www.w3.org/2000/svg">
<path opacity="0.8" d="M8.04812 0.359375C6.14852 0.359451 4.31092 1.00924 2.86413 2.19248C1.41734 3.37572 0.455777 5.01519 0.151484 6.81755C-0.152808 8.61991 0.220032 10.4675 1.20329 12.0298C2.18655 13.5921 3.71606 14.7672 5.51816 15.3447C5.91815 15.412 6.06815 15.1813 6.06815 14.9794C6.06815 14.7968 6.05814 14.1912 6.05814 13.5472C4.04815 13.9028 3.52815 13.0762 3.36816 12.6437C3.19062 12.223 2.90918 11.8502 2.54816 11.5575C2.26816 11.4133 1.86817 11.0577 2.53815 11.0481C2.79398 11.0747 3.03935 11.1603 3.25346 11.2975C3.46757 11.4347 3.64412 11.6195 3.76815 11.8362C3.87757 12.0252 4.02469 12.1915 4.2011 12.3257C4.37751 12.4599 4.57973 12.5593 4.79617 12.6182C5.01262 12.6771 5.23903 12.6944 5.46244 12.6691C5.68586 12.6438 5.90187 12.5763 6.09812 12.4706C6.13275 12.0797 6.31401 11.7142 6.60813 11.4422C4.82815 11.2499 2.96816 10.5867 2.96816 7.64538C2.95692 6.88114 3.2503 6.14172 3.78815 5.57878C3.54358 4.91456 3.5722 4.18562 3.86815 3.54101C3.86815 3.54101 4.53812 3.33915 6.06814 4.3292C7.37716 3.98314 8.75909 3.98314 10.0681 4.3292C11.5981 3.32954 12.2681 3.54101 12.2681 3.54101C12.5641 4.18561 12.5927 4.91456 12.3481 5.57878C12.8876 6.14076 13.1812 6.88082 13.1681 7.64538C13.1681 10.5963 11.2981 11.2499 9.51811 11.4422C9.70903 11.6282 9.85607 11.8515 9.94925 12.0969C10.0424 12.3424 10.0795 12.6043 10.0581 12.8648C10.0581 13.8933 10.0481 14.7199 10.0481 14.9794C10.0481 15.1813 10.1981 15.4216 10.5981 15.3447C12.397 14.7625 13.9221 13.5847 14.9012 12.0216C15.8803 10.4585 16.2496 8.61182 15.9432 6.81121C15.6368 5.0106 14.6746 3.37325 13.2285 2.19145C11.7823 1.00965 9.94628 0.360325 8.04812 0.359375Z" fill="#5F7AFB"/>
</svg>
