<svg width="20" height="21" viewBox="0 0 20 21" fill="none" xmlns="http://www.w3.org/2000/svg">
<path d="M10 8.27C9.5095 8.27 9.03002 8.41545 8.62219 8.68795C8.21435 8.96046 7.89648 9.34778 7.70878 9.80095C7.52107 10.2541 7.47196 10.7528 7.56765 11.2338C7.66334 11.7149 7.89954 12.1568 8.24638 12.5036C8.59321 12.8505 9.0351 13.0867 9.51618 13.1823C9.99725 13.278 10.4959 13.2289 10.9491 13.0412C11.4022 12.8535 11.7895 12.5356 12.062 12.1278C12.3346 11.72 12.48 11.2405 12.48 10.75C12.48 10.4243 12.4159 10.1018 12.2912 9.80095C12.1666 9.50006 11.9839 9.22666 11.7536 8.99638C11.5233 8.76609 11.2499 8.58341 10.9491 8.45878C10.6482 8.33415 10.3257 8.27 10 8.27ZM19.93 5.82C19.9247 5.04776 19.7825 4.28257 19.51 3.56C19.3093 3.03126 18.9987 2.55109 18.5988 2.15119C18.1989 1.75128 17.7187 1.44072 17.19 1.24C16.4674 0.967464 15.7022 0.825261 14.93 0.82C13.64 0.75 13.26 0.75 10 0.75C6.74 0.75 6.36 0.75 5.07 0.82C4.29776 0.825261 3.53257 0.967464 2.81 1.24C2.28126 1.44072 1.80109 1.75128 1.40119 2.15119C1.00128 2.55109 0.690718 3.03126 0.49 3.56C0.217464 4.28257 0.0752609 5.04776 0.0699999 5.82C-6.70552e-08 7.11 0 7.49 0 10.75C0 14.01 -6.70552e-08 14.39 0.0699999 15.68C0.0807639 16.455 0.222774 17.2225 0.49 17.95C0.689828 18.4763 1.00013 18.9537 1.4 19.35C1.79819 19.7523 2.27939 20.0629 2.81 20.26C3.53257 20.5325 4.29776 20.6747 5.07 20.68C6.36 20.75 6.74 20.75 10 20.75C13.26 20.75 13.64 20.75 14.93 20.68C15.7022 20.6747 16.4674 20.5325 17.19 20.26C17.7206 20.0629 18.2018 19.7523 18.6 19.35C18.9999 18.9537 19.3102 18.4763 19.51 17.95C19.7823 17.2239 19.9244 16.4555 19.93 15.68C20 14.39 20 14.01 20 10.75C20 7.49 20 7.11 19.93 5.82ZM17.39 13.82C17.3579 14.4371 17.2262 15.045 17 15.62C16.8059 16.0997 16.5173 16.5354 16.1514 16.9014C15.7854 17.2673 15.3497 17.5559 14.87 17.75C14.2895 17.9636 13.6783 18.0818 13.06 18.1C12.27 18.1 12.06 18.1 10 18.1C7.94 18.1 7.73 18.1 6.94 18.1C6.32173 18.0818 5.71049 17.9636 5.13 17.75C4.6341 17.5657 4.18628 17.2717 3.82 16.89C3.45767 16.5313 3.17784 16.0979 3 15.62C2.78556 15.0401 2.67061 14.4282 2.66 13.81C2.66 13.02 2.66 12.81 2.66 10.75C2.66 8.69 2.66 8.48 2.66 7.69C2.67061 7.07183 2.78556 6.45988 3 5.88C3.18428 5.3841 3.47827 4.93628 3.86 4.57C4.22033 4.20962 4.65326 3.93009 5.13 3.75C5.71049 3.53641 6.32173 3.41821 6.94 3.4C7.73 3.4 7.94 3.4 10 3.4C12.06 3.4 12.27 3.4 13.06 3.4C13.6783 3.41821 14.2895 3.53641 14.87 3.75C15.3659 3.93428 15.8137 4.22827 16.18 4.61C16.5423 4.96875 16.8222 5.40213 17 5.88C17.2136 6.46049 17.3318 7.07173 17.35 7.69C17.35 8.48 17.35 8.69 17.35 10.75C17.35 12.81 17.42 13.02 17.39 13.81V13.82ZM15.79 6.38C15.6709 6.05698 15.4832 5.76364 15.2398 5.52021C14.9964 5.27678 14.703 5.08906 14.38 4.97C13.9365 4.81626 13.4693 4.74179 13 4.75C12.22 4.75 12 4.75 10 4.75C8 4.75 7.78 4.75 7 4.75C6.52827 4.75461 6.06107 4.84263 5.62 5.01C5.30193 5.12366 5.01169 5.30371 4.76858 5.5382C4.52547 5.77269 4.33506 6.05624 4.21 6.37C4.06478 6.81537 3.99383 7.2816 4 7.75C4 8.53 4 8.75 4 10.75C4 12.75 4 12.97 4 13.75C4.00991 14.2212 4.09777 14.6875 4.26 15.13C4.37906 15.453 4.56678 15.7464 4.81021 15.9898C5.05364 16.2332 5.34698 16.4209 5.67 16.54C6.09667 16.6969 6.54565 16.7847 7 16.8C7.78 16.8 8 16.8 10 16.8C12 16.8 12.22 16.8 13 16.8C13.4717 16.7954 13.9389 16.7074 14.38 16.54C14.703 16.4209 14.9964 16.2332 15.2398 15.9898C15.4832 15.7464 15.6709 15.453 15.79 15.13C15.9574 14.6889 16.0454 14.2217 16.05 13.75C16.05 12.97 16.05 12.75 16.05 10.75C16.05 8.75 16.05 8.53 16.05 7.75C16.0503 7.2778 15.9621 6.80972 15.79 6.37V6.38ZM10 14.57C9.49882 14.57 9.00257 14.4711 8.53966 14.279C8.07676 14.0869 7.6563 13.8054 7.30238 13.4505C6.94846 13.0957 6.66803 12.6745 6.47714 12.2111C6.28626 11.7477 6.18868 11.2512 6.19 10.75C6.19 9.99405 6.4143 9.2551 6.83449 8.62669C7.25468 7.99828 7.85187 7.50866 8.55047 7.21983C9.24907 6.931 10.0177 6.85594 10.7589 7.00415C11.5002 7.15236 12.1808 7.51717 12.7147 8.05241C13.2485 8.58764 13.6116 9.26924 13.7578 10.0109C13.9041 10.7526 13.827 11.521 13.5363 12.2188C13.2457 12.9166 12.7545 13.5125 12.125 13.9311C11.4955 14.3496 10.7559 14.572 10 14.57ZM14 7.68C13.7789 7.6566 13.5744 7.55222 13.4257 7.38697C13.277 7.22172 13.1947 7.00729 13.1947 6.785C13.1947 6.56271 13.277 6.34828 13.4257 6.18303C13.5744 6.01778 13.7789 5.9134 14 5.89C14.2211 5.9134 14.4256 6.01778 14.5743 6.18303C14.723 6.34828 14.8053 6.56271 14.8053 6.785C14.8053 7.00729 14.723 7.22172 14.5743 7.38697C14.4256 7.55222 14.2211 7.6566 14 7.68Z" fill="#7B92FB"/>
</svg>
