<svg width="17" height="17" viewBox="0 0 17 17" fill="none" xmlns="http://www.w3.org/2000/svg">
<path d="M14.9132 0.859487H1.27941C1.12616 0.857371 0.97398 0.885285 0.831578 0.941633C0.689175 0.997981 0.559334 1.08166 0.44947 1.18789C0.339607 1.29412 0.251872 1.42083 0.191277 1.56076C0.130682 1.7007 0.0984128 1.85114 0.0963135 2.00347V15.7153C0.0984128 15.8676 0.130682 16.018 0.191277 16.158C0.251872 16.2979 0.339607 16.4246 0.44947 16.5309C0.559334 16.6371 0.689175 16.7208 0.831578 16.7771C0.97398 16.8335 1.12616 16.8614 1.27941 16.8593H14.9132C15.0665 16.8614 15.2186 16.8335 15.361 16.7771C15.5035 16.7208 15.6333 16.6371 15.7432 16.5309C15.853 16.4246 15.9408 16.2979 16.0014 16.158C16.0619 16.018 16.0942 15.8676 16.0963 15.7153V2.00347C16.0942 1.85114 16.0619 1.7007 16.0014 1.56076C15.9408 1.42083 15.853 1.29412 15.7432 1.18789C15.6333 1.08166 15.5035 0.997981 15.361 0.941633C15.2186 0.885285 15.0665 0.857371 14.9132 0.859487ZM4.94943 14.2513H2.53495V7.0514H4.94943V14.2513ZM3.74219 6.04341C3.4092 6.04341 3.08985 5.91193 2.85439 5.67789C2.61893 5.44385 2.48666 5.12642 2.48666 4.79543C2.48666 4.46445 2.61893 4.14702 2.85439 3.91297C3.08985 3.67893 3.4092 3.54745 3.74219 3.54745C3.91901 3.52752 4.09806 3.54493 4.26764 3.59856C4.43722 3.65218 4.59349 3.7408 4.72622 3.85861C4.85895 3.97643 4.96515 4.12078 5.03786 4.28222C5.11057 4.44367 5.14816 4.61855 5.14816 4.79543C5.14816 4.97231 5.11057 5.1472 5.03786 5.30864C4.96515 5.47008 4.85895 5.61443 4.72622 5.73225C4.59349 5.85007 4.43722 5.93869 4.26764 5.99231C4.09806 6.04593 3.91901 6.06335 3.74219 6.04341ZM13.6577 14.2513H11.2432V10.3874C11.2432 9.41937 10.8971 8.78738 10.0199 8.78738C9.74836 8.78935 9.48399 8.874 9.26238 9.02991C9.04077 9.18582 8.87256 9.40551 8.78042 9.65936C8.71744 9.84739 8.69015 10.0454 8.69993 10.2434V14.2433H6.28545C6.28545 14.2433 6.28545 7.69939 6.28545 7.0434H8.69993V8.05939C8.91928 7.68108 9.23829 7.36941 9.62262 7.15796C10.007 6.94651 10.442 6.84328 10.881 6.8594C12.4907 6.8594 13.6577 7.89139 13.6577 10.1074V14.2513Z" fill="#5F7AFB"/>
</svg>
