<svg width="21" height="17" viewBox="0 0 21 17" fill="none" xmlns="http://www.w3.org/2000/svg">
<path opacity="0.8" d="M20.0482 2.66935C19.2965 2.99545 18.5016 3.21101 17.6882 3.30935C18.5463 2.79667 19.1894 1.99013 19.4982 1.03935C18.6917 1.51941 17.8089 1.85765 16.8882 2.03935C16.2727 1.37192 15.4531 0.927647 14.558 0.776202C13.6628 0.624757 12.7427 0.774709 11.9419 1.20254C11.1412 1.63037 10.5051 2.31188 10.1334 3.14019C9.7617 3.96849 9.67545 4.89674 9.88816 5.77935C8.25758 5.69688 6.6626 5.2723 5.20681 4.53321C3.75102 3.79412 2.467 2.75704 1.43816 1.48935C1.07729 2.11952 0.887676 2.83317 0.888157 3.55935C0.886877 4.23373 1.05237 4.89797 1.36991 5.49291C1.68745 6.08786 2.14718 6.59506 2.70816 6.96935C2.05613 6.95161 1.41804 6.77665 0.848157 6.45935V6.50935C0.853044 7.45424 1.18415 8.36844 1.78547 9.09732C2.38679 9.82619 3.22141 10.325 4.14816 10.5094C3.79141 10.6179 3.42103 10.6752 3.04816 10.6794C2.79005 10.6763 2.53258 10.6529 2.27816 10.6094C2.54207 11.4222 3.05278 12.1325 3.73923 12.6415C4.42568 13.1505 5.25373 13.4329 6.10816 13.4494C4.66536 14.5846 2.88404 15.2042 1.04816 15.2094C0.713892 15.2104 0.379892 15.1904 0.0481567 15.1494C1.92259 16.3596 4.10697 17.0021 6.33816 16.9993C7.87785 17.0153 9.40529 16.7244 10.8313 16.1434C12.2573 15.5625 13.5532 14.7032 14.6434 13.6158C15.7335 12.5285 16.5961 11.2347 17.1807 9.81026C17.7653 8.38577 18.0602 6.85908 18.0482 5.31935C18.0482 5.14935 18.0482 4.96935 18.0482 4.78935C18.8329 4.20416 19.5096 3.48678 20.0482 2.66935Z" fill="#5F7AFB"/>
</svg>
