<svg width="55" height="30" viewBox="0 0 55 30" fill="none" xmlns="http://www.w3.org/2000/svg">
<path d="M55.6454 14.7188C54.9813 16.8021 53.3928 17.8438 50.8798 17.8438H39.2782L35.6063 28H28.6141L32.286 17.8438H26.2899C19.7274 25.7604 13.3147 29.7188 7.05164 29.7188C5.22872 29.7188 3.69226 29.3802 2.44226 28.7031C0.86674 27.8438 0.0789795 26.5807 0.0789795 24.9141C0.0789795 23.4948 0.664917 22.1081 1.83679 20.7539C3.72481 18.5794 6.58289 16.9714 10.411 15.9297C13.4058 15.1224 16.7131 14.7188 20.3329 14.7188H24.1219L35.9579 0.519531H45.3719L40.3329 14.7188H55.6454ZM37.4423 3.76172L28.8876 14.7188H33.243L37.4423 3.76172ZM21.4852 17.8438C16.6024 17.8438 13.1779 18.5469 11.2118 19.9531C9.58419 21.125 8.77039 22.3685 8.77039 23.6836C8.77039 24.8034 9.35632 25.3633 10.5282 25.3633C12.1428 25.3633 14.161 24.4518 16.5829 22.6289C18.7053 21.0534 20.3394 19.4583 21.4852 17.8438Z" fill="#EBFF00"/>
</svg>
